<svg width="1090" height="533" viewBox="0 0 1090 533" fill="none" xmlns="http://www.w3.org/2000/svg">
<path d="M655.09 94C656.194 94 657.09 93.1046 657.09 92C657.09 90.8954 656.194 90 655.09 90C653.985 90 653.09 90.8954 653.09 92C653.09 93.1046 653.985 94 655.09 94Z" fill="#CCDFFF"/>
<path d="M607.09 94C608.194 94 609.09 93.1046 609.09 92C609.09 90.8954 608.194 90 607.09 90C605.985 90 605.09 90.8954 605.09 92C605.09 93.1046 605.985 94 607.09 94Z" fill="#CCDFFF"/>
<path d="M559.09 94C560.194 94 561.09 93.1046 561.09 92C561.09 90.8954 560.194 90 559.09 90C557.985 90 557.09 90.8954 557.09 92C557.09 93.1046 557.985 94 559.09 94Z" fill="#CCDFFF"/>
<path d="M655.09 142C656.194 142 657.09 141.105 657.09 140C657.09 138.895 656.194 138 655.09 138C653.985 138 653.09 138.895 653.09 140C653.09 141.105 653.985 142 655.09 142Z" fill="#CCDFFF"/>
<path d="M655.09 214C656.194 214 657.09 213.105 657.09 212C657.09 210.895 656.194 210 655.09 210C653.985 210 653.09 210.895 653.09 212C653.09 213.105 653.985 214 655.09 214Z" fill="#CCDFFF"/>
<path d="M607.09 142C608.194 142 609.09 141.105 609.09 140C609.09 138.895 608.194 138 607.09 138C605.985 138 605.09 138.895 605.09 140C605.09 141.105 605.985 142 607.09 142Z" fill="#CCDFFF"/>
<path d="M559.09 142C560.194 142 561.09 141.105 561.09 140C561.09 138.895 560.194 138 559.09 138C557.985 138 557.09 138.895 557.09 140C557.09 141.105 557.985 142 559.09 142Z" fill="#CCDFFF"/>
<path d="M607.09 214C608.194 214 609.09 213.105 609.09 212C609.09 210.895 608.194 210 607.09 210C605.985 210 605.09 210.895 605.09 212C605.09 213.105 605.985 214 607.09 214Z" fill="#CCDFFF"/>
<path d="M559.09 214C560.194 214 561.09 213.105 561.09 212C561.09 210.895 560.194 210 559.09 210C557.985 210 557.09 210.895 557.09 212C557.09 213.105 557.985 214 559.09 214Z" fill="#CCDFFF"/>
<path d="M631.09 94C632.194 94 633.09 93.1046 633.09 92C633.09 90.8954 632.194 90 631.09 90C629.985 90 629.09 90.8954 629.09 92C629.09 93.1046 629.985 94 631.09 94Z" fill="#CCDFFF"/>
<path d="M583.09 94C584.194 94 585.09 93.1046 585.09 92C585.09 90.8954 584.194 90 583.09 90C581.985 90 581.09 90.8954 581.09 92C581.09 93.1046 581.985 94 583.09 94Z" fill="#CCDFFF"/>
<path d="M535.09 94C536.194 94 537.09 93.1046 537.09 92C537.09 90.8954 536.194 90 535.09 90C533.985 90 533.09 90.8954 533.09 92C533.09 93.1046 533.985 94 535.09 94Z" fill="#CCDFFF"/>
<path d="M511.09 94C512.194 94 513.09 93.1046 513.09 92C513.09 90.8954 512.194 90 511.09 90C509.985 90 509.09 90.8954 509.09 92C509.09 93.1046 509.985 94 511.09 94Z" fill="#CCDFFF"/>
<path d="M631.09 142C632.194 142 633.09 141.105 633.09 140C633.09 138.895 632.194 138 631.09 138C629.985 138 629.09 138.895 629.09 140C629.09 141.105 629.985 142 631.09 142Z" fill="#CCDFFF"/>
<path d="M631.09 214C632.194 214 633.09 213.105 633.09 212C633.09 210.895 632.194 210 631.09 210C629.985 210 629.09 210.895 629.09 212C629.09 213.105 629.985 214 631.09 214Z" fill="#CCDFFF"/>
<path d="M583.09 142C584.194 142 585.09 141.105 585.09 140C585.09 138.895 584.194 138 583.09 138C581.985 138 581.09 138.895 581.09 140C581.09 141.105 581.985 142 583.09 142Z" fill="#CCDFFF"/>
<path d="M535.09 142C536.194 142 537.09 141.105 537.09 140C537.09 138.895 536.194 138 535.09 138C533.985 138 533.09 138.895 533.09 140C533.09 141.105 533.985 142 535.09 142Z" fill="#CCDFFF"/>
<path d="M511.09 142C512.194 142 513.09 141.105 513.09 140C513.09 138.895 512.194 138 511.09 138C509.985 138 509.09 138.895 509.09 140C509.09 141.105 509.985 142 511.09 142Z" fill="#CCDFFF"/>
<path d="M583.09 214C584.194 214 585.09 213.105 585.09 212C585.09 210.895 584.194 210 583.09 210C581.985 210 581.09 210.895 581.09 212C581.09 213.105 581.985 214 583.09 214Z" fill="#CCDFFF"/>
<path d="M535.09 214C536.194 214 537.09 213.105 537.09 212C537.09 210.895 536.194 210 535.09 210C533.985 210 533.09 210.895 533.09 212C533.09 213.105 533.985 214 535.09 214Z" fill="#CCDFFF"/>
<path d="M511.09 214C512.194 214 513.09 213.105 513.09 212C513.09 210.895 512.194 210 511.09 210C509.985 210 509.09 210.895 509.09 212C509.09 213.105 509.985 214 511.09 214Z" fill="#CCDFFF"/>
<path d="M655.09 118C656.194 118 657.09 117.105 657.09 116C657.09 114.895 656.194 114 655.09 114C653.985 114 653.09 114.895 653.09 116C653.09 117.105 653.985 118 655.09 118Z" fill="#CCDFFF"/>
<path d="M655.09 190C656.194 190 657.09 189.105 657.09 188C657.09 186.895 656.194 186 655.09 186C653.985 186 653.09 186.895 653.09 188C653.09 189.105 653.985 190 655.09 190Z" fill="#CCDFFF"/>
<path d="M607.09 118C608.194 118 609.09 117.105 609.09 116C609.09 114.895 608.194 114 607.09 114C605.985 114 605.09 114.895 605.09 116C605.09 117.105 605.985 118 607.09 118Z" fill="#CCDFFF"/>
<path d="M559.09 118C560.194 118 561.09 117.105 561.09 116C561.09 114.895 560.194 114 559.09 114C557.985 114 557.09 114.895 557.09 116C557.09 117.105 557.985 118 559.09 118Z" fill="#CCDFFF"/>
<path d="M607.09 190C608.194 190 609.09 189.105 609.09 188C609.09 186.895 608.194 186 607.09 186C605.985 186 605.09 186.895 605.09 188C605.09 189.105 605.985 190 607.09 190Z" fill="#CCDFFF"/>
<path d="M559.09 190C560.194 190 561.09 189.105 561.09 188C561.09 186.895 560.194 186 559.09 186C557.985 186 557.09 186.895 557.09 188C557.09 189.105 557.985 190 559.09 190Z" fill="#CCDFFF"/>
<path d="M655.09 166C656.194 166 657.09 165.105 657.09 164C657.09 162.895 656.194 162 655.09 162C653.985 162 653.09 162.895 653.09 164C653.09 165.105 653.985 166 655.09 166Z" fill="#CCDFFF"/>
<path d="M655.09 238C656.194 238 657.09 237.105 657.09 236C657.09 234.895 656.194 234 655.09 234C653.985 234 653.09 234.895 653.09 236C653.09 237.105 653.985 238 655.09 238Z" fill="#CCDFFF"/>
<path d="M607.09 166C608.194 166 609.09 165.105 609.09 164C609.09 162.895 608.194 162 607.09 162C605.985 162 605.09 162.895 605.09 164C605.09 165.105 605.985 166 607.09 166Z" fill="#CCDFFF"/>
<path d="M559.09 166C560.194 166 561.09 165.105 561.09 164C561.09 162.895 560.194 162 559.09 162C557.985 162 557.09 162.895 557.09 164C557.09 165.105 557.985 166 559.09 166Z" fill="#CCDFFF"/>
<path d="M607.09 238C608.194 238 609.09 237.105 609.09 236C609.09 234.895 608.194 234 607.09 234C605.985 234 605.09 234.895 605.09 236C605.09 237.105 605.985 238 607.09 238Z" fill="#CCDFFF"/>
<path d="M559.09 238C560.194 238 561.09 237.105 561.09 236C561.09 234.895 560.194 234 559.09 234C557.985 234 557.09 234.895 557.09 236C557.09 237.105 557.985 238 559.09 238Z" fill="#CCDFFF"/>
<path d="M631.09 118C632.194 118 633.09 117.105 633.09 116C633.09 114.895 632.194 114 631.09 114C629.985 114 629.09 114.895 629.09 116C629.09 117.105 629.985 118 631.09 118Z" fill="#CCDFFF"/>
<path d="M631.09 190C632.194 190 633.09 189.105 633.09 188C633.09 186.895 632.194 186 631.09 186C629.985 186 629.09 186.895 629.09 188C629.09 189.105 629.985 190 631.09 190Z" fill="#CCDFFF"/>
<path d="M583.09 118C584.194 118 585.09 117.105 585.09 116C585.09 114.895 584.194 114 583.09 114C581.985 114 581.09 114.895 581.09 116C581.09 117.105 581.985 118 583.09 118Z" fill="#CCDFFF"/>
<path d="M535.09 118C536.194 118 537.09 117.105 537.09 116C537.09 114.895 536.194 114 535.09 114C533.985 114 533.09 114.895 533.09 116C533.09 117.105 533.985 118 535.09 118Z" fill="#CCDFFF"/>
<path d="M511.09 118C512.194 118 513.09 117.105 513.09 116C513.09 114.895 512.194 114 511.09 114C509.985 114 509.09 114.895 509.09 116C509.09 117.105 509.985 118 511.09 118Z" fill="#CCDFFF"/>
<path d="M583.09 190C584.194 190 585.09 189.105 585.09 188C585.09 186.895 584.194 186 583.09 186C581.985 186 581.09 186.895 581.09 188C581.09 189.105 581.985 190 583.09 190Z" fill="#CCDFFF"/>
<path d="M535.09 190C536.194 190 537.09 189.105 537.09 188C537.09 186.895 536.194 186 535.09 186C533.985 186 533.09 186.895 533.09 188C533.09 189.105 533.985 190 535.09 190Z" fill="#CCDFFF"/>
<path d="M511.09 190C512.194 190 513.09 189.105 513.09 188C513.09 186.895 512.194 186 511.09 186C509.985 186 509.09 186.895 509.09 188C509.09 189.105 509.985 190 511.09 190Z" fill="#CCDFFF"/>
<path d="M631.09 166C632.194 166 633.09 165.105 633.09 164C633.09 162.895 632.194 162 631.09 162C629.985 162 629.09 162.895 629.09 164C629.09 165.105 629.985 166 631.09 166Z" fill="#CCDFFF"/>
<path d="M631.09 238C632.194 238 633.09 237.105 633.09 236C633.09 234.895 632.194 234 631.09 234C629.985 234 629.09 234.895 629.09 236C629.09 237.105 629.985 238 631.09 238Z" fill="#CCDFFF"/>
<path d="M583.09 166C584.194 166 585.09 165.105 585.09 164C585.09 162.895 584.194 162 583.09 162C581.985 162 581.09 162.895 581.09 164C581.09 165.105 581.985 166 583.09 166Z" fill="#CCDFFF"/>
<path d="M535.09 166C536.194 166 537.09 165.105 537.09 164C537.09 162.895 536.194 162 535.09 162C533.985 162 533.09 162.895 533.09 164C533.09 165.105 533.985 166 535.09 166Z" fill="#CCDFFF"/>
<path d="M511.09 166C512.194 166 513.09 165.105 513.09 164C513.09 162.895 512.194 162 511.09 162C509.985 162 509.09 162.895 509.09 164C509.09 165.105 509.985 166 511.09 166Z" fill="#CCDFFF"/>
<path d="M583.09 238C584.194 238 585.09 237.105 585.09 236C585.09 234.895 584.194 234 583.09 234C581.985 234 581.09 234.895 581.09 236C581.09 237.105 581.985 238 583.09 238Z" fill="#CCDFFF"/>
<path d="M535.09 238C536.194 238 537.09 237.105 537.09 236C537.09 234.895 536.194 234 535.09 234C533.985 234 533.09 234.895 533.09 236C533.09 237.105 533.985 238 535.09 238Z" fill="#CCDFFF"/>
<path d="M511.09 238C512.194 238 513.09 237.105 513.09 236C513.09 234.895 512.194 234 511.09 234C509.985 234 509.09 234.895 509.09 236C509.09 237.105 509.985 238 511.09 238Z" fill="#CCDFFF"/>
<path d="M679.09 94C680.194 94 681.09 93.1046 681.09 92C681.09 90.8954 680.194 90 679.09 90C677.985 90 677.09 90.8954 677.09 92C677.09 93.1046 677.985 94 679.09 94Z" fill="#CCDFFF"/>
<path d="M679.09 142C680.194 142 681.09 141.105 681.09 140C681.09 138.895 680.194 138 679.09 138C677.985 138 677.09 138.895 677.09 140C677.09 141.105 677.985 142 679.09 142Z" fill="#CCDFFF"/>
<path d="M679.09 214C680.194 214 681.09 213.105 681.09 212C681.09 210.895 680.194 210 679.09 210C677.985 210 677.09 210.895 677.09 212C677.09 213.105 677.985 214 679.09 214Z" fill="#CCDFFF"/>
<path d="M679.09 118C680.194 118 681.09 117.105 681.09 116C681.09 114.895 680.194 114 679.09 114C677.985 114 677.09 114.895 677.09 116C677.09 117.105 677.985 118 679.09 118Z" fill="#CCDFFF"/>
<path d="M679.09 190C680.194 190 681.09 189.105 681.09 188C681.09 186.895 680.194 186 679.09 186C677.985 186 677.09 186.895 677.09 188C677.09 189.105 677.985 190 679.09 190Z" fill="#CCDFFF"/>
<path d="M679.09 166C680.194 166 681.09 165.105 681.09 164C681.09 162.895 680.194 162 679.09 162C677.985 162 677.09 162.895 677.09 164C677.09 165.105 677.985 166 679.09 166Z" fill="#CCDFFF"/>
<path d="M679.09 238C680.194 238 681.09 237.105 681.09 236C681.09 234.895 680.194 234 679.09 234C677.985 234 677.09 234.895 677.09 236C677.09 237.105 677.985 238 679.09 238Z" fill="#CCDFFF"/>
<path d="M487.09 94C488.194 94 489.09 93.1046 489.09 92C489.09 90.8954 488.194 90 487.09 90C485.985 90 485.09 90.8954 485.09 92C485.09 93.1046 485.985 94 487.09 94Z" fill="#CCDFFF"/>
<path d="M439.09 94C440.194 94 441.09 93.1046 441.09 92C441.09 90.8954 440.194 90 439.09 90C437.985 90 437.09 90.8954 437.09 92C437.09 93.1046 437.985 94 439.09 94Z" fill="#CCDFFF"/>
<path d="M391.09 94C392.194 94 393.09 93.1046 393.09 92C393.09 90.8954 392.194 90 391.09 90C389.985 90 389.09 90.8954 389.09 92C389.09 93.1046 389.985 94 391.09 94Z" fill="#CCDFFF"/>
<path d="M487.09 142C488.194 142 489.09 141.105 489.09 140C489.09 138.895 488.194 138 487.09 138C485.985 138 485.09 138.895 485.09 140C485.09 141.105 485.985 142 487.09 142Z" fill="#CCDFFF"/>
<path d="M487.09 214C488.194 214 489.09 213.105 489.09 212C489.09 210.895 488.194 210 487.09 210C485.985 210 485.09 210.895 485.09 212C485.09 213.105 485.985 214 487.09 214Z" fill="#CCDFFF"/>
<path d="M439.09 142C440.194 142 441.09 141.105 441.09 140C441.09 138.895 440.194 138 439.09 138C437.985 138 437.09 138.895 437.09 140C437.09 141.105 437.985 142 439.09 142Z" fill="#CCDFFF"/>
<path d="M391.09 142C392.194 142 393.09 141.105 393.09 140C393.09 138.895 392.194 138 391.09 138C389.985 138 389.09 138.895 389.09 140C389.09 141.105 389.985 142 391.09 142Z" fill="#CCDFFF"/>
<path d="M439.09 214C440.194 214 441.09 213.105 441.09 212C441.09 210.895 440.194 210 439.09 210C437.985 210 437.09 210.895 437.09 212C437.09 213.105 437.985 214 439.09 214Z" fill="#CCDFFF"/>
<path d="M391.09 214C392.194 214 393.09 213.105 393.09 212C393.09 210.895 392.194 210 391.09 210C389.985 210 389.09 210.895 389.09 212C389.09 213.105 389.985 214 391.09 214Z" fill="#CCDFFF"/>
<path d="M463.09 94C464.194 94 465.09 93.1046 465.09 92C465.09 90.8954 464.194 90 463.09 90C461.985 90 461.09 90.8954 461.09 92C461.09 93.1046 461.985 94 463.09 94Z" fill="#CCDFFF"/>
<path d="M415.09 94C416.194 94 417.09 93.1046 417.09 92C417.09 90.8954 416.194 90 415.09 90C413.985 90 413.09 90.8954 413.09 92C413.09 93.1046 413.985 94 415.09 94Z" fill="#CCDFFF"/>
<path d="M367.09 94C368.194 94 369.09 93.1046 369.09 92C369.09 90.8954 368.194 90 367.09 90C365.985 90 365.09 90.8954 365.09 92C365.09 93.1046 365.985 94 367.09 94Z" fill="#CCDFFF"/>
<path d="M463.09 142C464.194 142 465.09 141.105 465.09 140C465.09 138.895 464.194 138 463.09 138C461.985 138 461.09 138.895 461.09 140C461.09 141.105 461.985 142 463.09 142Z" fill="#CCDFFF"/>
<path d="M463.09 214C464.194 214 465.09 213.105 465.09 212C465.09 210.895 464.194 210 463.09 210C461.985 210 461.09 210.895 461.09 212C461.09 213.105 461.985 214 463.09 214Z" fill="#CCDFFF"/>
<path d="M415.09 142C416.194 142 417.09 141.105 417.09 140C417.09 138.895 416.194 138 415.09 138C413.985 138 413.09 138.895 413.09 140C413.09 141.105 413.985 142 415.09 142Z" fill="#CCDFFF"/>
<path d="M367.09 142C368.194 142 369.09 141.105 369.09 140C369.09 138.895 368.194 138 367.09 138C365.985 138 365.09 138.895 365.09 140C365.09 141.105 365.985 142 367.09 142Z" fill="#CCDFFF"/>
<path d="M415.09 214C416.194 214 417.09 213.105 417.09 212C417.09 210.895 416.194 210 415.09 210C413.985 210 413.09 210.895 413.09 212C413.09 213.105 413.985 214 415.09 214Z" fill="#CCDFFF"/>
<path d="M367.09 214C368.194 214 369.09 213.105 369.09 212C369.09 210.895 368.194 210 367.09 210C365.985 210 365.09 210.895 365.09 212C365.09 213.105 365.985 214 367.09 214Z" fill="#CCDFFF"/>
<path d="M487.09 118C488.194 118 489.09 117.105 489.09 116C489.09 114.895 488.194 114 487.09 114C485.985 114 485.09 114.895 485.09 116C485.09 117.105 485.985 118 487.09 118Z" fill="#CCDFFF"/>
<path d="M487.09 190C488.194 190 489.09 189.105 489.09 188C489.09 186.895 488.194 186 487.09 186C485.985 186 485.09 186.895 485.09 188C485.09 189.105 485.985 190 487.09 190Z" fill="#CCDFFF"/>
<path d="M439.09 118C440.194 118 441.09 117.105 441.09 116C441.09 114.895 440.194 114 439.09 114C437.985 114 437.09 114.895 437.09 116C437.09 117.105 437.985 118 439.09 118Z" fill="#CCDFFF"/>
<path d="M391.09 118C392.194 118 393.09 117.105 393.09 116C393.09 114.895 392.194 114 391.09 114C389.985 114 389.09 114.895 389.09 116C389.09 117.105 389.985 118 391.09 118Z" fill="#CCDFFF"/>
<path d="M439.09 190C440.194 190 441.09 189.105 441.09 188C441.09 186.895 440.194 186 439.09 186C437.985 186 437.09 186.895 437.09 188C437.09 189.105 437.985 190 439.09 190Z" fill="#CCDFFF"/>
<path d="M391.09 190C392.194 190 393.09 189.105 393.09 188C393.09 186.895 392.194 186 391.09 186C389.985 186 389.09 186.895 389.09 188C389.09 189.105 389.985 190 391.09 190Z" fill="#CCDFFF"/>
<path d="M487.09 166C488.194 166 489.09 165.105 489.09 164C489.09 162.895 488.194 162 487.09 162C485.985 162 485.09 162.895 485.09 164C485.09 165.105 485.985 166 487.09 166Z" fill="#CCDFFF"/>
<path d="M487.09 238C488.194 238 489.09 237.105 489.09 236C489.09 234.895 488.194 234 487.09 234C485.985 234 485.09 234.895 485.09 236C485.09 237.105 485.985 238 487.09 238Z" fill="#CCDFFF"/>
<path d="M439.09 166C440.194 166 441.09 165.105 441.09 164C441.09 162.895 440.194 162 439.09 162C437.985 162 437.09 162.895 437.09 164C437.09 165.105 437.985 166 439.09 166Z" fill="#CCDFFF"/>
<path d="M391.09 166C392.194 166 393.09 165.105 393.09 164C393.09 162.895 392.194 162 391.09 162C389.985 162 389.09 162.895 389.09 164C389.09 165.105 389.985 166 391.09 166Z" fill="#CCDFFF"/>
<path d="M439.09 238C440.194 238 441.09 237.105 441.09 236C441.09 234.895 440.194 234 439.09 234C437.985 234 437.09 234.895 437.09 236C437.09 237.105 437.985 238 439.09 238Z" fill="#CCDFFF"/>
<path d="M391.09 238C392.194 238 393.09 237.105 393.09 236C393.09 234.895 392.194 234 391.09 234C389.985 234 389.09 234.895 389.09 236C389.09 237.105 389.985 238 391.09 238Z" fill="#CCDFFF"/>
<path d="M463.09 118C464.194 118 465.09 117.105 465.09 116C465.09 114.895 464.194 114 463.09 114C461.985 114 461.09 114.895 461.09 116C461.09 117.105 461.985 118 463.09 118Z" fill="#CCDFFF"/>
<path d="M463.09 190C464.194 190 465.09 189.105 465.09 188C465.09 186.895 464.194 186 463.09 186C461.985 186 461.09 186.895 461.09 188C461.09 189.105 461.985 190 463.09 190Z" fill="#CCDFFF"/>
<path d="M415.09 118C416.194 118 417.09 117.105 417.09 116C417.09 114.895 416.194 114 415.09 114C413.985 114 413.09 114.895 413.09 116C413.09 117.105 413.985 118 415.09 118Z" fill="#CCDFFF"/>
<path d="M367.09 118C368.194 118 369.09 117.105 369.09 116C369.09 114.895 368.194 114 367.09 114C365.985 114 365.09 114.895 365.09 116C365.09 117.105 365.985 118 367.09 118Z" fill="#CCDFFF"/>
<path d="M415.09 190C416.194 190 417.09 189.105 417.09 188C417.09 186.895 416.194 186 415.09 186C413.985 186 413.09 186.895 413.09 188C413.09 189.105 413.985 190 415.09 190Z" fill="#CCDFFF"/>
<path d="M367.09 190C368.194 190 369.09 189.105 369.09 188C369.09 186.895 368.194 186 367.09 186C365.985 186 365.09 186.895 365.09 188C365.09 189.105 365.985 190 367.09 190Z" fill="#CCDFFF"/>
<path d="M463.09 166C464.194 166 465.09 165.105 465.09 164C465.09 162.895 464.194 162 463.09 162C461.985 162 461.09 162.895 461.09 164C461.09 165.105 461.985 166 463.09 166Z" fill="#CCDFFF"/>
<path d="M463.09 238C464.194 238 465.09 237.105 465.09 236C465.09 234.895 464.194 234 463.09 234C461.985 234 461.09 234.895 461.09 236C461.09 237.105 461.985 238 463.09 238Z" fill="#CCDFFF"/>
<path d="M415.09 166C416.194 166 417.09 165.105 417.09 164C417.09 162.895 416.194 162 415.09 162C413.985 162 413.09 162.895 413.09 164C413.09 165.105 413.985 166 415.09 166Z" fill="#CCDFFF"/>
<path d="M367.09 166C368.194 166 369.09 165.105 369.09 164C369.09 162.895 368.194 162 367.09 162C365.985 162 365.09 162.895 365.09 164C365.09 165.105 365.985 166 367.09 166Z" fill="#CCDFFF"/>
<path d="M415.09 238C416.194 238 417.09 237.105 417.09 236C417.09 234.895 416.194 234 415.09 234C413.985 234 413.09 234.895 413.09 236C413.09 237.105 413.985 238 415.09 238Z" fill="#CCDFFF"/>
<path d="M367.09 238C368.194 238 369.09 237.105 369.09 236C369.09 234.895 368.194 234 367.09 234C365.985 234 365.09 234.895 365.09 236C365.09 237.105 365.985 238 367.09 238Z" fill="#CCDFFF"/>
<path d="M655.09 262C656.194 262 657.09 261.105 657.09 260C657.09 258.895 656.194 258 655.09 258C653.985 258 653.09 258.895 653.09 260C653.09 261.105 653.985 262 655.09 262Z" fill="#CCDFFF"/>
<path d="M607.09 262C608.194 262 609.09 261.105 609.09 260C609.09 258.895 608.194 258 607.09 258C605.985 258 605.09 258.895 605.09 260C605.09 261.105 605.985 262 607.09 262Z" fill="#CCDFFF"/>
<path d="M559.09 262C560.194 262 561.09 261.105 561.09 260C561.09 258.895 560.194 258 559.09 258C557.985 258 557.09 258.895 557.09 260C557.09 261.105 557.985 262 559.09 262Z" fill="#CCDFFF"/>
<path d="M655.09 310C656.194 310 657.09 309.105 657.09 308C657.09 306.895 656.194 306 655.09 306C653.985 306 653.09 306.895 653.09 308C653.09 309.105 653.985 310 655.09 310Z" fill="#CCDFFF"/>
<path d="M655.09 382C656.194 382 657.09 381.105 657.09 380C657.09 378.895 656.194 378 655.09 378C653.985 378 653.09 378.895 653.09 380C653.09 381.105 653.985 382 655.09 382Z" fill="#CCDFFF"/>
<path d="M607.09 310C608.194 310 609.09 309.105 609.09 308C609.09 306.895 608.194 306 607.09 306C605.985 306 605.09 306.895 605.09 308C605.09 309.105 605.985 310 607.09 310Z" fill="#CCDFFF"/>
<path d="M559.09 310C560.194 310 561.09 309.105 561.09 308C561.09 306.895 560.194 306 559.09 306C557.985 306 557.09 306.895 557.09 308C557.09 309.105 557.985 310 559.09 310Z" fill="#CCDFFF"/>
<path d="M607.09 382C608.194 382 609.09 381.105 609.09 380C609.09 378.895 608.194 378 607.09 378C605.985 378 605.09 378.895 605.09 380C605.09 381.105 605.985 382 607.09 382Z" fill="#CCDFFF"/>
<path d="M559.09 382C560.194 382 561.09 381.105 561.09 380C561.09 378.895 560.194 378 559.09 378C557.985 378 557.09 378.895 557.09 380C557.09 381.105 557.985 382 559.09 382Z" fill="#CCDFFF"/>
<path d="M631.09 262C632.194 262 633.09 261.105 633.09 260C633.09 258.895 632.194 258 631.09 258C629.985 258 629.09 258.895 629.09 260C629.09 261.105 629.985 262 631.09 262Z" fill="#CCDFFF"/>
<path d="M583.09 262C584.194 262 585.09 261.105 585.09 260C585.09 258.895 584.194 258 583.09 258C581.985 258 581.09 258.895 581.09 260C581.09 261.105 581.985 262 583.09 262Z" fill="#CCDFFF"/>
<path d="M535.09 262C536.194 262 537.09 261.105 537.09 260C537.09 258.895 536.194 258 535.09 258C533.985 258 533.09 258.895 533.09 260C533.09 261.105 533.985 262 535.09 262Z" fill="#CCDFFF"/>
<path d="M511.09 262C512.194 262 513.09 261.105 513.09 260C513.09 258.895 512.194 258 511.09 258C509.985 258 509.09 258.895 509.09 260C509.09 261.105 509.985 262 511.09 262Z" fill="#CCDFFF"/>
<path d="M631.09 310C632.194 310 633.09 309.105 633.09 308C633.09 306.895 632.194 306 631.09 306C629.985 306 629.09 306.895 629.09 308C629.09 309.105 629.985 310 631.09 310Z" fill="#CCDFFF"/>
<path d="M631.09 382C632.194 382 633.09 381.105 633.09 380C633.09 378.895 632.194 378 631.09 378C629.985 378 629.09 378.895 629.09 380C629.09 381.105 629.985 382 631.09 382Z" fill="#CCDFFF"/>
<path d="M583.09 310C584.194 310 585.09 309.105 585.09 308C585.09 306.895 584.194 306 583.09 306C581.985 306 581.09 306.895 581.09 308C581.09 309.105 581.985 310 583.09 310Z" fill="#CCDFFF"/>
<path d="M535.09 310C536.194 310 537.09 309.105 537.09 308C537.09 306.895 536.194 306 535.09 306C533.985 306 533.09 306.895 533.09 308C533.09 309.105 533.985 310 535.09 310Z" fill="#CCDFFF"/>
<path d="M511.09 310C512.194 310 513.09 309.105 513.09 308C513.09 306.895 512.194 306 511.09 306C509.985 306 509.09 306.895 509.09 308C509.09 309.105 509.985 310 511.09 310Z" fill="#CCDFFF"/>
<path d="M583.09 382C584.194 382 585.09 381.105 585.09 380C585.09 378.895 584.194 378 583.09 378C581.985 378 581.09 378.895 581.09 380C581.09 381.105 581.985 382 583.09 382Z" fill="#CCDFFF"/>
<path d="M535.09 382C536.194 382 537.09 381.105 537.09 380C537.09 378.895 536.194 378 535.09 378C533.985 378 533.09 378.895 533.09 380C533.09 381.105 533.985 382 535.09 382Z" fill="#CCDFFF"/>
<path d="M511.09 382C512.194 382 513.09 381.105 513.09 380C513.09 378.895 512.194 378 511.09 378C509.985 378 509.09 378.895 509.09 380C509.09 381.105 509.985 382 511.09 382Z" fill="#CCDFFF"/>
<path d="M655.09 286C656.194 286 657.09 285.105 657.09 284C657.09 282.895 656.194 282 655.09 282C653.985 282 653.09 282.895 653.09 284C653.09 285.105 653.985 286 655.09 286Z" fill="#CCDFFF"/>
<path d="M655.09 358C656.194 358 657.09 357.105 657.09 356C657.09 354.895 656.194 354 655.09 354C653.985 354 653.09 354.895 653.09 356C653.09 357.105 653.985 358 655.09 358Z" fill="#CCDFFF"/>
<path d="M607.09 286C608.194 286 609.09 285.105 609.09 284C609.09 282.895 608.194 282 607.09 282C605.985 282 605.09 282.895 605.09 284C605.09 285.105 605.985 286 607.09 286Z" fill="#CCDFFF"/>
<path d="M559.09 286C560.194 286 561.09 285.105 561.09 284C561.09 282.895 560.194 282 559.09 282C557.985 282 557.09 282.895 557.09 284C557.09 285.105 557.985 286 559.09 286Z" fill="#CCDFFF"/>
<path d="M607.09 358C608.194 358 609.09 357.105 609.09 356C609.09 354.895 608.194 354 607.09 354C605.985 354 605.09 354.895 605.09 356C605.09 357.105 605.985 358 607.09 358Z" fill="#CCDFFF"/>
<path d="M559.09 358C560.194 358 561.09 357.105 561.09 356C561.09 354.895 560.194 354 559.09 354C557.985 354 557.09 354.895 557.09 356C557.09 357.105 557.985 358 559.09 358Z" fill="#CCDFFF"/>
<path d="M655.09 334C656.194 334 657.09 333.105 657.09 332C657.09 330.895 656.194 330 655.09 330C653.985 330 653.09 330.895 653.09 332C653.09 333.105 653.985 334 655.09 334Z" fill="#CCDFFF"/>
<path d="M655.09 406C656.194 406 657.09 405.105 657.09 404C657.09 402.895 656.194 402 655.09 402C653.985 402 653.09 402.895 653.09 404C653.09 405.105 653.985 406 655.09 406Z" fill="#CCDFFF"/>
<path d="M607.09 334C608.194 334 609.09 333.105 609.09 332C609.09 330.895 608.194 330 607.09 330C605.985 330 605.09 330.895 605.09 332C605.09 333.105 605.985 334 607.09 334Z" fill="#CCDFFF"/>
<path d="M559.09 334C560.194 334 561.09 333.105 561.09 332C561.09 330.895 560.194 330 559.09 330C557.985 330 557.09 330.895 557.09 332C557.09 333.105 557.985 334 559.09 334Z" fill="#CCDFFF"/>
<path d="M607.09 406C608.194 406 609.09 405.105 609.09 404C609.09 402.895 608.194 402 607.09 402C605.985 402 605.09 402.895 605.09 404C605.09 405.105 605.985 406 607.09 406Z" fill="#CCDFFF"/>
<path d="M559.09 406C560.194 406 561.09 405.105 561.09 404C561.09 402.895 560.194 402 559.09 402C557.985 402 557.09 402.895 557.09 404C557.09 405.105 557.985 406 559.09 406Z" fill="#CCDFFF"/>
<path d="M631.09 286C632.194 286 633.09 285.105 633.09 284C633.09 282.895 632.194 282 631.09 282C629.985 282 629.09 282.895 629.09 284C629.09 285.105 629.985 286 631.09 286Z" fill="#CCDFFF"/>
<path d="M631.09 358C632.194 358 633.09 357.105 633.09 356C633.09 354.895 632.194 354 631.09 354C629.985 354 629.09 354.895 629.09 356C629.09 357.105 629.985 358 631.09 358Z" fill="#CCDFFF"/>
<path d="M583.09 286C584.194 286 585.09 285.105 585.09 284C585.09 282.895 584.194 282 583.09 282C581.985 282 581.09 282.895 581.09 284C581.09 285.105 581.985 286 583.09 286Z" fill="#CCDFFF"/>
<path d="M535.09 286C536.194 286 537.09 285.105 537.09 284C537.09 282.895 536.194 282 535.09 282C533.985 282 533.09 282.895 533.09 284C533.09 285.105 533.985 286 535.09 286Z" fill="#CCDFFF"/>
<path d="M511.09 286C512.194 286 513.09 285.105 513.09 284C513.09 282.895 512.194 282 511.09 282C509.985 282 509.09 282.895 509.09 284C509.09 285.105 509.985 286 511.09 286Z" fill="#CCDFFF"/>
<path d="M583.09 358C584.194 358 585.09 357.105 585.09 356C585.09 354.895 584.194 354 583.09 354C581.985 354 581.09 354.895 581.09 356C581.09 357.105 581.985 358 583.09 358Z" fill="#CCDFFF"/>
<path d="M535.09 358C536.194 358 537.09 357.105 537.09 356C537.09 354.895 536.194 354 535.09 354C533.985 354 533.09 354.895 533.09 356C533.09 357.105 533.985 358 535.09 358Z" fill="#CCDFFF"/>
<path d="M511.09 358C512.194 358 513.09 357.105 513.09 356C513.09 354.895 512.194 354 511.09 354C509.985 354 509.09 354.895 509.09 356C509.09 357.105 509.985 358 511.09 358Z" fill="#CCDFFF"/>
<path d="M631.09 334C632.194 334 633.09 333.105 633.09 332C633.09 330.895 632.194 330 631.09 330C629.985 330 629.09 330.895 629.09 332C629.09 333.105 629.985 334 631.09 334Z" fill="#CCDFFF"/>
<path d="M631.09 406C632.194 406 633.09 405.105 633.09 404C633.09 402.895 632.194 402 631.09 402C629.985 402 629.09 402.895 629.09 404C629.09 405.105 629.985 406 631.09 406Z" fill="#CCDFFF"/>
<path d="M583.09 334C584.194 334 585.09 333.105 585.09 332C585.09 330.895 584.194 330 583.09 330C581.985 330 581.09 330.895 581.09 332C581.09 333.105 581.985 334 583.09 334Z" fill="#CCDFFF"/>
<path d="M535.09 334C536.194 334 537.09 333.105 537.09 332C537.09 330.895 536.194 330 535.09 330C533.985 330 533.09 330.895 533.09 332C533.09 333.105 533.985 334 535.09 334Z" fill="#CCDFFF"/>
<path d="M511.09 334C512.194 334 513.09 333.105 513.09 332C513.09 330.895 512.194 330 511.09 330C509.985 330 509.09 330.895 509.09 332C509.09 333.105 509.985 334 511.09 334Z" fill="#CCDFFF"/>
<path d="M583.09 406C584.194 406 585.09 405.105 585.09 404C585.09 402.895 584.194 402 583.09 402C581.985 402 581.09 402.895 581.09 404C581.09 405.105 581.985 406 583.09 406Z" fill="#CCDFFF"/>
<path d="M535.09 406C536.194 406 537.09 405.105 537.09 404C537.09 402.895 536.194 402 535.09 402C533.985 402 533.09 402.895 533.09 404C533.09 405.105 533.985 406 535.09 406Z" fill="#CCDFFF"/>
<path d="M511.09 406C512.194 406 513.09 405.105 513.09 404C513.09 402.895 512.194 402 511.09 402C509.985 402 509.09 402.895 509.09 404C509.09 405.105 509.985 406 511.09 406Z" fill="#CCDFFF"/>
<path d="M679.09 262C680.194 262 681.09 261.105 681.09 260C681.09 258.895 680.194 258 679.09 258C677.985 258 677.09 258.895 677.09 260C677.09 261.105 677.985 262 679.09 262Z" fill="#CCDFFF"/>
<path d="M679.09 310C680.194 310 681.09 309.105 681.09 308C681.09 306.895 680.194 306 679.09 306C677.985 306 677.09 306.895 677.09 308C677.09 309.105 677.985 310 679.09 310Z" fill="#CCDFFF"/>
<path d="M679.09 382C680.194 382 681.09 381.105 681.09 380C681.09 378.895 680.194 378 679.09 378C677.985 378 677.09 378.895 677.09 380C677.09 381.105 677.985 382 679.09 382Z" fill="#CCDFFF"/>
<path d="M679.09 286C680.194 286 681.09 285.105 681.09 284C681.09 282.895 680.194 282 679.09 282C677.985 282 677.09 282.895 677.09 284C677.09 285.105 677.985 286 679.09 286Z" fill="#CCDFFF"/>
<path d="M679.09 358C680.194 358 681.09 357.105 681.09 356C681.09 354.895 680.194 354 679.09 354C677.985 354 677.09 354.895 677.09 356C677.09 357.105 677.985 358 679.09 358Z" fill="#CCDFFF"/>
<path d="M679.09 334C680.194 334 681.09 333.105 681.09 332C681.09 330.895 680.194 330 679.09 330C677.985 330 677.09 330.895 677.09 332C677.09 333.105 677.985 334 679.09 334Z" fill="#CCDFFF"/>
<path d="M679.09 406C680.194 406 681.09 405.105 681.09 404C681.09 402.895 680.194 402 679.09 402C677.985 402 677.09 402.895 677.09 404C677.09 405.105 677.985 406 679.09 406Z" fill="#CCDFFF"/>
<path d="M655.09 46C656.194 46 657.09 45.1046 657.09 44C657.09 42.8954 656.194 42 655.09 42C653.985 42 653.09 42.8954 653.09 44C653.09 45.1046 653.985 46 655.09 46Z" fill="#CCDFFF"/>
<path d="M607.09 46C608.194 46 609.09 45.1046 609.09 44C609.09 42.8954 608.194 42 607.09 42C605.985 42 605.09 42.8954 605.09 44C605.09 45.1046 605.985 46 607.09 46Z" fill="#CCDFFF"/>
<path d="M559.09 46C560.194 46 561.09 45.1046 561.09 44C561.09 42.8954 560.194 42 559.09 42C557.985 42 557.09 42.8954 557.09 44C557.09 45.1046 557.985 46 559.09 46Z" fill="#CCDFFF"/>
<path d="M631.09 46C632.194 46 633.09 45.1046 633.09 44C633.09 42.8954 632.194 42 631.09 42C629.985 42 629.09 42.8954 629.09 44C629.09 45.1046 629.985 46 631.09 46Z" fill="#CCDFFF"/>
<path d="M583.09 46C584.194 46 585.09 45.1046 585.09 44C585.09 42.8954 584.194 42 583.09 42C581.985 42 581.09 42.8954 581.09 44C581.09 45.1046 581.985 46 583.09 46Z" fill="#CCDFFF"/>
<path d="M535.09 46C536.194 46 537.09 45.1046 537.09 44C537.09 42.8954 536.194 42 535.09 42C533.985 42 533.09 42.8954 533.09 44C533.09 45.1046 533.985 46 535.09 46Z" fill="#CCDFFF"/>
<path d="M511.09 46C512.194 46 513.09 45.1046 513.09 44C513.09 42.8954 512.194 42 511.09 42C509.985 42 509.09 42.8954 509.09 44C509.09 45.1046 509.985 46 511.09 46Z" fill="#CCDFFF"/>
<path d="M655.09 22C656.194 22 657.09 21.1046 657.09 20C657.09 18.8954 656.194 18 655.09 18C653.985 18 653.09 18.8954 653.09 20C653.09 21.1046 653.985 22 655.09 22Z" fill="#CCDFFF"/>
<path d="M607.09 22C608.194 22 609.09 21.1046 609.09 20C609.09 18.8954 608.194 18 607.09 18C605.985 18 605.09 18.8954 605.09 20C605.09 21.1046 605.985 22 607.09 22Z" fill="#CCDFFF"/>
<path d="M559.09 22C560.194 22 561.09 21.1046 561.09 20C561.09 18.8954 560.194 18 559.09 18C557.985 18 557.09 18.8954 557.09 20C557.09 21.1046 557.985 22 559.09 22Z" fill="#CCDFFF"/>
<path d="M655.09 70C656.194 70 657.09 69.1046 657.09 68C657.09 66.8954 656.194 66 655.09 66C653.985 66 653.09 66.8954 653.09 68C653.09 69.1046 653.985 70 655.09 70Z" fill="#CCDFFF"/>
<path d="M607.09 70C608.194 70 609.09 69.1046 609.09 68C609.09 66.8954 608.194 66 607.09 66C605.985 66 605.09 66.8954 605.09 68C605.09 69.1046 605.985 70 607.09 70Z" fill="#CCDFFF"/>
<path d="M559.09 70C560.194 70 561.09 69.1046 561.09 68C561.09 66.8954 560.194 66 559.09 66C557.985 66 557.09 66.8954 557.09 68C557.09 69.1046 557.985 70 559.09 70Z" fill="#CCDFFF"/>
<path d="M631.09 22C632.194 22 633.09 21.1046 633.09 20C633.09 18.8954 632.194 18 631.09 18C629.985 18 629.09 18.8954 629.09 20C629.09 21.1046 629.985 22 631.09 22Z" fill="#CCDFFF"/>
<path d="M583.09 22C584.194 22 585.09 21.1046 585.09 20C585.09 18.8954 584.194 18 583.09 18C581.985 18 581.09 18.8954 581.09 20C581.09 21.1046 581.985 22 583.09 22Z" fill="#CCDFFF"/>
<path d="M535.09 22C536.194 22 537.09 21.1046 537.09 20C537.09 18.8954 536.194 18 535.09 18C533.985 18 533.09 18.8954 533.09 20C533.09 21.1046 533.985 22 535.09 22Z" fill="#CCDFFF"/>
<path d="M511.09 22C512.194 22 513.09 21.1046 513.09 20C513.09 18.8954 512.194 18 511.09 18C509.985 18 509.09 18.8954 509.09 20C509.09 21.1046 509.985 22 511.09 22Z" fill="#CCDFFF"/>
<path d="M631.09 70C632.194 70 633.09 69.1046 633.09 68C633.09 66.8954 632.194 66 631.09 66C629.985 66 629.09 66.8954 629.09 68C629.09 69.1046 629.985 70 631.09 70Z" fill="#CCDFFF"/>
<path d="M583.09 70C584.194 70 585.09 69.1046 585.09 68C585.09 66.8954 584.194 66 583.09 66C581.985 66 581.09 66.8954 581.09 68C581.09 69.1046 581.985 70 583.09 70Z" fill="#CCDFFF"/>
<path d="M535.09 70C536.194 70 537.09 69.1046 537.09 68C537.09 66.8954 536.194 66 535.09 66C533.985 66 533.09 66.8954 533.09 68C533.09 69.1046 533.985 70 535.09 70Z" fill="#CCDFFF"/>
<path d="M511.09 70C512.194 70 513.09 69.1046 513.09 68C513.09 66.8954 512.194 66 511.09 66C509.985 66 509.09 66.8954 509.09 68C509.09 69.1046 509.985 70 511.09 70Z" fill="#CCDFFF"/>
<path d="M679.09 46C680.194 46 681.09 45.1046 681.09 44C681.09 42.8954 680.194 42 679.09 42C677.985 42 677.09 42.8954 677.09 44C677.09 45.1046 677.985 46 679.09 46Z" fill="#CCDFFF"/>
<path d="M679.09 22C680.194 22 681.09 21.1046 681.09 20C681.09 18.8954 680.194 18 679.09 18C677.985 18 677.09 18.8954 677.09 20C677.09 21.1046 677.985 22 679.09 22Z" fill="#CCDFFF"/>
<path d="M679.09 70C680.194 70 681.09 69.1046 681.09 68C681.09 66.8954 680.194 66 679.09 66C677.985 66 677.09 66.8954 677.09 68C677.09 69.1046 677.985 70 679.09 70Z" fill="#CCDFFF"/>
<path d="M487.09 262C488.194 262 489.09 261.105 489.09 260C489.09 258.895 488.194 258 487.09 258C485.985 258 485.09 258.895 485.09 260C485.09 261.105 485.985 262 487.09 262Z" fill="#CCDFFF"/>
<path d="M439.09 262C440.194 262 441.09 261.105 441.09 260C441.09 258.895 440.194 258 439.09 258C437.985 258 437.09 258.895 437.09 260C437.09 261.105 437.985 262 439.09 262Z" fill="#CCDFFF"/>
<path d="M391.09 262C392.194 262 393.09 261.105 393.09 260C393.09 258.895 392.194 258 391.09 258C389.985 258 389.09 258.895 389.09 260C389.09 261.105 389.985 262 391.09 262Z" fill="#CCDFFF"/>
<path d="M487.09 310C488.194 310 489.09 309.105 489.09 308C489.09 306.895 488.194 306 487.09 306C485.985 306 485.09 306.895 485.09 308C485.09 309.105 485.985 310 487.09 310Z" fill="#CCDFFF"/>
<path d="M487.09 382C488.194 382 489.09 381.105 489.09 380C489.09 378.895 488.194 378 487.09 378C485.985 378 485.09 378.895 485.09 380C485.09 381.105 485.985 382 487.09 382Z" fill="#CCDFFF"/>
<path d="M439.09 310C440.194 310 441.09 309.105 441.09 308C441.09 306.895 440.194 306 439.09 306C437.985 306 437.09 306.895 437.09 308C437.09 309.105 437.985 310 439.09 310Z" fill="#CCDFFF"/>
<path d="M391.09 310C392.194 310 393.09 309.105 393.09 308C393.09 306.895 392.194 306 391.09 306C389.985 306 389.09 306.895 389.09 308C389.09 309.105 389.985 310 391.09 310Z" fill="#CCDFFF"/>
<path d="M439.09 382C440.194 382 441.09 381.105 441.09 380C441.09 378.895 440.194 378 439.09 378C437.985 378 437.09 378.895 437.09 380C437.09 381.105 437.985 382 439.09 382Z" fill="#CCDFFF"/>
<path d="M391.09 382C392.194 382 393.09 381.105 393.09 380C393.09 378.895 392.194 378 391.09 378C389.985 378 389.09 378.895 389.09 380C389.09 381.105 389.985 382 391.09 382Z" fill="#CCDFFF"/>
<path d="M463.09 262C464.194 262 465.09 261.105 465.09 260C465.09 258.895 464.194 258 463.09 258C461.985 258 461.09 258.895 461.09 260C461.09 261.105 461.985 262 463.09 262Z" fill="#CCDFFF"/>
<path d="M415.09 262C416.194 262 417.09 261.105 417.09 260C417.09 258.895 416.194 258 415.09 258C413.985 258 413.09 258.895 413.09 260C413.09 261.105 413.985 262 415.09 262Z" fill="#CCDFFF"/>
<path d="M367.09 262C368.194 262 369.09 261.105 369.09 260C369.09 258.895 368.194 258 367.09 258C365.985 258 365.09 258.895 365.09 260C365.09 261.105 365.985 262 367.09 262Z" fill="#CCDFFF"/>
<path d="M463.09 310C464.194 310 465.09 309.105 465.09 308C465.09 306.895 464.194 306 463.09 306C461.985 306 461.09 306.895 461.09 308C461.09 309.105 461.985 310 463.09 310Z" fill="#CCDFFF"/>
<path d="M463.09 382C464.194 382 465.09 381.105 465.09 380C465.09 378.895 464.194 378 463.09 378C461.985 378 461.09 378.895 461.09 380C461.09 381.105 461.985 382 463.09 382Z" fill="#CCDFFF"/>
<path d="M415.09 310C416.194 310 417.09 309.105 417.09 308C417.09 306.895 416.194 306 415.09 306C413.985 306 413.09 306.895 413.09 308C413.09 309.105 413.985 310 415.09 310Z" fill="#CCDFFF"/>
<path d="M367.09 310C368.194 310 369.09 309.105 369.09 308C369.09 306.895 368.194 306 367.09 306C365.985 306 365.09 306.895 365.09 308C365.09 309.105 365.985 310 367.09 310Z" fill="#CCDFFF"/>
<path d="M415.09 382C416.194 382 417.09 381.105 417.09 380C417.09 378.895 416.194 378 415.09 378C413.985 378 413.09 378.895 413.09 380C413.09 381.105 413.985 382 415.09 382Z" fill="#CCDFFF"/>
<path d="M367.09 382C368.194 382 369.09 381.105 369.09 380C369.09 378.895 368.194 378 367.09 378C365.985 378 365.09 378.895 365.09 380C365.09 381.105 365.985 382 367.09 382Z" fill="#CCDFFF"/>
<path d="M487.09 286C488.194 286 489.09 285.105 489.09 284C489.09 282.895 488.194 282 487.09 282C485.985 282 485.09 282.895 485.09 284C485.09 285.105 485.985 286 487.09 286Z" fill="#CCDFFF"/>
<path d="M487.09 358C488.194 358 489.09 357.105 489.09 356C489.09 354.895 488.194 354 487.09 354C485.985 354 485.09 354.895 485.09 356C485.09 357.105 485.985 358 487.09 358Z" fill="#CCDFFF"/>
<path d="M439.09 286C440.194 286 441.09 285.105 441.09 284C441.09 282.895 440.194 282 439.09 282C437.985 282 437.09 282.895 437.09 284C437.09 285.105 437.985 286 439.09 286Z" fill="#CCDFFF"/>
<path d="M391.09 286C392.194 286 393.09 285.105 393.09 284C393.09 282.895 392.194 282 391.09 282C389.985 282 389.09 282.895 389.09 284C389.09 285.105 389.985 286 391.09 286Z" fill="#CCDFFF"/>
<path d="M439.09 358C440.194 358 441.09 357.105 441.09 356C441.09 354.895 440.194 354 439.09 354C437.985 354 437.09 354.895 437.09 356C437.09 357.105 437.985 358 439.09 358Z" fill="#CCDFFF"/>
<path d="M391.09 358C392.194 358 393.09 357.105 393.09 356C393.09 354.895 392.194 354 391.09 354C389.985 354 389.09 354.895 389.09 356C389.09 357.105 389.985 358 391.09 358Z" fill="#CCDFFF"/>
<path d="M487.09 334C488.194 334 489.09 333.105 489.09 332C489.09 330.895 488.194 330 487.09 330C485.985 330 485.09 330.895 485.09 332C485.09 333.105 485.985 334 487.09 334Z" fill="#CCDFFF"/>
<path d="M487.09 406C488.194 406 489.09 405.105 489.09 404C489.09 402.895 488.194 402 487.09 402C485.985 402 485.09 402.895 485.09 404C485.09 405.105 485.985 406 487.09 406Z" fill="#CCDFFF"/>
<path d="M439.09 334C440.194 334 441.09 333.105 441.09 332C441.09 330.895 440.194 330 439.09 330C437.985 330 437.09 330.895 437.09 332C437.09 333.105 437.985 334 439.09 334Z" fill="#CCDFFF"/>
<path d="M391.09 334C392.194 334 393.09 333.105 393.09 332C393.09 330.895 392.194 330 391.09 330C389.985 330 389.09 330.895 389.09 332C389.09 333.105 389.985 334 391.09 334Z" fill="#CCDFFF"/>
<path d="M439.09 406C440.194 406 441.09 405.105 441.09 404C441.09 402.895 440.194 402 439.09 402C437.985 402 437.09 402.895 437.09 404C437.09 405.105 437.985 406 439.09 406Z" fill="#CCDFFF"/>
<path d="M391.09 406C392.194 406 393.09 405.105 393.09 404C393.09 402.895 392.194 402 391.09 402C389.985 402 389.09 402.895 389.09 404C389.09 405.105 389.985 406 391.09 406Z" fill="#CCDFFF"/>
<path d="M463.09 286C464.194 286 465.09 285.105 465.09 284C465.09 282.895 464.194 282 463.09 282C461.985 282 461.09 282.895 461.09 284C461.09 285.105 461.985 286 463.09 286Z" fill="#CCDFFF"/>
<path d="M463.09 358C464.194 358 465.09 357.105 465.09 356C465.09 354.895 464.194 354 463.09 354C461.985 354 461.09 354.895 461.09 356C461.09 357.105 461.985 358 463.09 358Z" fill="#CCDFFF"/>
<path d="M415.09 286C416.194 286 417.09 285.105 417.09 284C417.09 282.895 416.194 282 415.09 282C413.985 282 413.09 282.895 413.09 284C413.09 285.105 413.985 286 415.09 286Z" fill="#CCDFFF"/>
<path d="M367.09 286C368.194 286 369.09 285.105 369.09 284C369.09 282.895 368.194 282 367.09 282C365.985 282 365.09 282.895 365.09 284C365.09 285.105 365.985 286 367.09 286Z" fill="#CCDFFF"/>
<path d="M415.09 358C416.194 358 417.09 357.105 417.09 356C417.09 354.895 416.194 354 415.09 354C413.985 354 413.09 354.895 413.09 356C413.09 357.105 413.985 358 415.09 358Z" fill="#CCDFFF"/>
<path d="M367.09 358C368.194 358 369.09 357.105 369.09 356C369.09 354.895 368.194 354 367.09 354C365.985 354 365.09 354.895 365.09 356C365.09 357.105 365.985 358 367.09 358Z" fill="#CCDFFF"/>
<path d="M463.09 334C464.194 334 465.09 333.105 465.09 332C465.09 330.895 464.194 330 463.09 330C461.985 330 461.09 330.895 461.09 332C461.09 333.105 461.985 334 463.09 334Z" fill="#CCDFFF"/>
<path d="M463.09 406C464.194 406 465.09 405.105 465.09 404C465.09 402.895 464.194 402 463.09 402C461.985 402 461.09 402.895 461.09 404C461.09 405.105 461.985 406 463.09 406Z" fill="#CCDFFF"/>
<path d="M415.09 334C416.194 334 417.09 333.105 417.09 332C417.09 330.895 416.194 330 415.09 330C413.985 330 413.09 330.895 413.09 332C413.09 333.105 413.985 334 415.09 334Z" fill="#CCDFFF"/>
<path d="M367.09 334C368.194 334 369.09 333.105 369.09 332C369.09 330.895 368.194 330 367.09 330C365.985 330 365.09 330.895 365.09 332C365.09 333.105 365.985 334 367.09 334Z" fill="#CCDFFF"/>
<path d="M415.09 406C416.194 406 417.09 405.105 417.09 404C417.09 402.895 416.194 402 415.09 402C413.985 402 413.09 402.895 413.09 404C413.09 405.105 413.985 406 415.09 406Z" fill="#CCDFFF"/>
<path d="M367.09 406C368.194 406 369.09 405.105 369.09 404C369.09 402.895 368.194 402 367.09 402C365.985 402 365.09 402.895 365.09 404C365.09 405.105 365.985 406 367.09 406Z" fill="#CCDFFF"/>
<path d="M487.09 46C488.194 46 489.09 45.1046 489.09 44C489.09 42.8954 488.194 42 487.09 42C485.985 42 485.09 42.8954 485.09 44C485.09 45.1046 485.985 46 487.09 46Z" fill="#CCDFFF"/>
<path d="M439.09 46C440.194 46 441.09 45.1046 441.09 44C441.09 42.8954 440.194 42 439.09 42C437.985 42 437.09 42.8954 437.09 44C437.09 45.1046 437.985 46 439.09 46Z" fill="#CCDFFF"/>
<path d="M391.09 46C392.194 46 393.09 45.1046 393.09 44C393.09 42.8954 392.194 42 391.09 42C389.985 42 389.09 42.8954 389.09 44C389.09 45.1046 389.985 46 391.09 46Z" fill="#CCDFFF"/>
<path d="M463.09 46C464.194 46 465.09 45.1046 465.09 44C465.09 42.8954 464.194 42 463.09 42C461.985 42 461.09 42.8954 461.09 44C461.09 45.1046 461.985 46 463.09 46Z" fill="#CCDFFF"/>
<path d="M415.09 46C416.194 46 417.09 45.1046 417.09 44C417.09 42.8954 416.194 42 415.09 42C413.985 42 413.09 42.8954 413.09 44C413.09 45.1046 413.985 46 415.09 46Z" fill="#CCDFFF"/>
<path d="M367.09 46C368.194 46 369.09 45.1046 369.09 44C369.09 42.8954 368.194 42 367.09 42C365.985 42 365.09 42.8954 365.09 44C365.09 45.1046 365.985 46 367.09 46Z" fill="#CCDFFF"/>
<path d="M487.09 22C488.194 22 489.09 21.1046 489.09 20C489.09 18.8954 488.194 18 487.09 18C485.985 18 485.09 18.8954 485.09 20C485.09 21.1046 485.985 22 487.09 22Z" fill="#CCDFFF"/>
<path d="M439.09 22C440.194 22 441.09 21.1046 441.09 20C441.09 18.8954 440.194 18 439.09 18C437.985 18 437.09 18.8954 437.09 20C437.09 21.1046 437.985 22 439.09 22Z" fill="#CCDFFF"/>
<path d="M391.09 22C392.194 22 393.09 21.1046 393.09 20C393.09 18.8954 392.194 18 391.09 18C389.985 18 389.09 18.8954 389.09 20C389.09 21.1046 389.985 22 391.09 22Z" fill="#CCDFFF"/>
<path d="M487.09 70C488.194 70 489.09 69.1046 489.09 68C489.09 66.8954 488.194 66 487.09 66C485.985 66 485.09 66.8954 485.09 68C485.09 69.1046 485.985 70 487.09 70Z" fill="#CCDFFF"/>
<path d="M439.09 70C440.194 70 441.09 69.1046 441.09 68C441.09 66.8954 440.194 66 439.09 66C437.985 66 437.09 66.8954 437.09 68C437.09 69.1046 437.985 70 439.09 70Z" fill="#CCDFFF"/>
<path d="M391.09 70C392.194 70 393.09 69.1046 393.09 68C393.09 66.8954 392.194 66 391.09 66C389.985 66 389.09 66.8954 389.09 68C389.09 69.1046 389.985 70 391.09 70Z" fill="#CCDFFF"/>
<path d="M463.09 22C464.194 22 465.09 21.1046 465.09 20C465.09 18.8954 464.194 18 463.09 18C461.985 18 461.09 18.8954 461.09 20C461.09 21.1046 461.985 22 463.09 22Z" fill="#CCDFFF"/>
<path d="M415.09 22C416.194 22 417.09 21.1046 417.09 20C417.09 18.8954 416.194 18 415.09 18C413.985 18 413.09 18.8954 413.09 20C413.09 21.1046 413.985 22 415.09 22Z" fill="#CCDFFF"/>
<path d="M367.09 22C368.194 22 369.09 21.1046 369.09 20C369.09 18.8954 368.194 18 367.09 18C365.985 18 365.09 18.8954 365.09 20C365.09 21.1046 365.985 22 367.09 22Z" fill="#CCDFFF"/>
<path d="M463.09 70C464.194 70 465.09 69.1046 465.09 68C465.09 66.8954 464.194 66 463.09 66C461.985 66 461.09 66.8954 461.09 68C461.09 69.1046 461.985 70 463.09 70Z" fill="#CCDFFF"/>
<path d="M415.09 70C416.194 70 417.09 69.1046 417.09 68C417.09 66.8954 416.194 66 415.09 66C413.985 66 413.09 66.8954 413.09 68C413.09 69.1046 413.985 70 415.09 70Z" fill="#CCDFFF"/>
<path d="M367.09 70C368.194 70 369.09 69.1046 369.09 68C369.09 66.8954 368.194 66 367.09 66C365.985 66 365.09 66.8954 365.09 68C365.09 69.1046 365.985 70 367.09 70Z" fill="#CCDFFF"/>
<path d="M655.09 430C656.194 430 657.09 429.105 657.09 428C657.09 426.895 656.194 426 655.09 426C653.985 426 653.09 426.895 653.09 428C653.09 429.105 653.985 430 655.09 430Z" fill="#CCDFFF"/>
<path d="M607.09 430C608.194 430 609.09 429.105 609.09 428C609.09 426.895 608.194 426 607.09 426C605.985 426 605.09 426.895 605.09 428C605.09 429.105 605.985 430 607.09 430Z" fill="#CCDFFF"/>
<path d="M559.09 430C560.194 430 561.09 429.105 561.09 428C561.09 426.895 560.194 426 559.09 426C557.985 426 557.09 426.895 557.09 428C557.09 429.105 557.985 430 559.09 430Z" fill="#CCDFFF"/>
<path d="M655.09 478C656.194 478 657.09 477.105 657.09 476C657.09 474.895 656.194 474 655.09 474C653.985 474 653.09 474.895 653.09 476C653.09 477.105 653.985 478 655.09 478Z" fill="#CCDFFF"/>
<path d="M607.09 478C608.194 478 609.09 477.105 609.09 476C609.09 474.895 608.194 474 607.09 474C605.985 474 605.09 474.895 605.09 476C605.09 477.105 605.985 478 607.09 478Z" fill="#CCDFFF"/>
<path d="M559.09 478C560.194 478 561.09 477.105 561.09 476C561.09 474.895 560.194 474 559.09 474C557.985 474 557.09 474.895 557.09 476C557.09 477.105 557.985 478 559.09 478Z" fill="#CCDFFF"/>
<path d="M631.09 430C632.194 430 633.09 429.105 633.09 428C633.09 426.895 632.194 426 631.09 426C629.985 426 629.09 426.895 629.09 428C629.09 429.105 629.985 430 631.09 430Z" fill="#CCDFFF"/>
<path d="M583.09 430C584.194 430 585.09 429.105 585.09 428C585.09 426.895 584.194 426 583.09 426C581.985 426 581.09 426.895 581.09 428C581.09 429.105 581.985 430 583.09 430Z" fill="#CCDFFF"/>
<path d="M535.09 430C536.194 430 537.09 429.105 537.09 428C537.09 426.895 536.194 426 535.09 426C533.985 426 533.09 426.895 533.09 428C533.09 429.105 533.985 430 535.09 430Z" fill="#CCDFFF"/>
<path d="M511.09 430C512.194 430 513.09 429.105 513.09 428C513.09 426.895 512.194 426 511.09 426C509.985 426 509.09 426.895 509.09 428C509.09 429.105 509.985 430 511.09 430Z" fill="#CCDFFF"/>
<path d="M631.09 478C632.194 478 633.09 477.105 633.09 476C633.09 474.895 632.194 474 631.09 474C629.985 474 629.09 474.895 629.09 476C629.09 477.105 629.985 478 631.09 478Z" fill="#CCDFFF"/>
<path d="M583.09 478C584.194 478 585.09 477.105 585.09 476C585.09 474.895 584.194 474 583.09 474C581.985 474 581.09 474.895 581.09 476C581.09 477.105 581.985 478 583.09 478Z" fill="#CCDFFF"/>
<path d="M535.09 478C536.194 478 537.09 477.105 537.09 476C537.09 474.895 536.194 474 535.09 474C533.985 474 533.09 474.895 533.09 476C533.09 477.105 533.985 478 535.09 478Z" fill="#CCDFFF"/>
<path d="M511.09 478C512.194 478 513.09 477.105 513.09 476C513.09 474.895 512.194 474 511.09 474C509.985 474 509.09 474.895 509.09 476C509.09 477.105 509.985 478 511.09 478Z" fill="#CCDFFF"/>
<path d="M655.09 454C656.194 454 657.09 453.105 657.09 452C657.09 450.895 656.194 450 655.09 450C653.985 450 653.09 450.895 653.09 452C653.09 453.105 653.985 454 655.09 454Z" fill="#CCDFFF"/>
<path d="M607.09 454C608.194 454 609.09 453.105 609.09 452C609.09 450.895 608.194 450 607.09 450C605.985 450 605.09 450.895 605.09 452C605.09 453.105 605.985 454 607.09 454Z" fill="#CCDFFF"/>
<path d="M559.09 454C560.194 454 561.09 453.105 561.09 452C561.09 450.895 560.194 450 559.09 450C557.985 450 557.09 450.895 557.09 452C557.09 453.105 557.985 454 559.09 454Z" fill="#CCDFFF"/>
<path d="M655.09 502C656.194 502 657.09 501.105 657.09 500C657.09 498.895 656.194 498 655.09 498C653.985 498 653.09 498.895 653.09 500C653.09 501.105 653.985 502 655.09 502Z" fill="#CCDFFF"/>
<path d="M607.09 502C608.194 502 609.09 501.105 609.09 500C609.09 498.895 608.194 498 607.09 498C605.985 498 605.09 498.895 605.09 500C605.09 501.105 605.985 502 607.09 502Z" fill="#CCDFFF"/>
<path d="M559.09 502C560.194 502 561.09 501.105 561.09 500C561.09 498.895 560.194 498 559.09 498C557.985 498 557.09 498.895 557.09 500C557.09 501.105 557.985 502 559.09 502Z" fill="#CCDFFF"/>
<path d="M631.09 454C632.194 454 633.09 453.105 633.09 452C633.09 450.895 632.194 450 631.09 450C629.985 450 629.09 450.895 629.09 452C629.09 453.105 629.985 454 631.09 454Z" fill="#CCDFFF"/>
<path d="M583.09 454C584.194 454 585.09 453.105 585.09 452C585.09 450.895 584.194 450 583.09 450C581.985 450 581.09 450.895 581.09 452C581.09 453.105 581.985 454 583.09 454Z" fill="#CCDFFF"/>
<path d="M535.09 454C536.194 454 537.09 453.105 537.09 452C537.09 450.895 536.194 450 535.09 450C533.985 450 533.09 450.895 533.09 452C533.09 453.105 533.985 454 535.09 454Z" fill="#CCDFFF"/>
<path d="M511.09 454C512.194 454 513.09 453.105 513.09 452C513.09 450.895 512.194 450 511.09 450C509.985 450 509.09 450.895 509.09 452C509.09 453.105 509.985 454 511.09 454Z" fill="#CCDFFF"/>
<path d="M631.09 502C632.194 502 633.09 501.105 633.09 500C633.09 498.895 632.194 498 631.09 498C629.985 498 629.09 498.895 629.09 500C629.09 501.105 629.985 502 631.09 502Z" fill="#CCDFFF"/>
<path d="M583.09 502C584.194 502 585.09 501.105 585.09 500C585.09 498.895 584.194 498 583.09 498C581.985 498 581.09 498.895 581.09 500C581.09 501.105 581.985 502 583.09 502Z" fill="#CCDFFF"/>
<path d="M535.09 502C536.194 502 537.09 501.105 537.09 500C537.09 498.895 536.194 498 535.09 498C533.985 498 533.09 498.895 533.09 500C533.09 501.105 533.985 502 535.09 502Z" fill="#CCDFFF"/>
<path d="M511.09 502C512.194 502 513.09 501.105 513.09 500C513.09 498.895 512.194 498 511.09 498C509.985 498 509.09 498.895 509.09 500C509.09 501.105 509.985 502 511.09 502Z" fill="#CCDFFF"/>
<path d="M679.09 430C680.194 430 681.09 429.105 681.09 428C681.09 426.895 680.194 426 679.09 426C677.985 426 677.09 426.895 677.09 428C677.09 429.105 677.985 430 679.09 430Z" fill="#CCDFFF"/>
<path d="M679.09 478C680.194 478 681.09 477.105 681.09 476C681.09 474.895 680.194 474 679.09 474C677.985 474 677.09 474.895 677.09 476C677.09 477.105 677.985 478 679.09 478Z" fill="#CCDFFF"/>
<path d="M679.09 454C680.194 454 681.09 453.105 681.09 452C681.09 450.895 680.194 450 679.09 450C677.985 450 677.09 450.895 677.09 452C677.09 453.105 677.985 454 679.09 454Z" fill="#CCDFFF"/>
<path d="M679.09 502C680.194 502 681.09 501.105 681.09 500C681.09 498.895 680.194 498 679.09 498C677.985 498 677.09 498.895 677.09 500C677.09 501.105 677.985 502 679.09 502Z" fill="#CCDFFF"/>
<path d="M487.09 430C488.194 430 489.09 429.105 489.09 428C489.09 426.895 488.194 426 487.09 426C485.985 426 485.09 426.895 485.09 428C485.09 429.105 485.985 430 487.09 430Z" fill="#CCDFFF"/>
<path d="M439.09 430C440.194 430 441.09 429.105 441.09 428C441.09 426.895 440.194 426 439.09 426C437.985 426 437.09 426.895 437.09 428C437.09 429.105 437.985 430 439.09 430Z" fill="#CCDFFF"/>
<path d="M391.09 430C392.194 430 393.09 429.105 393.09 428C393.09 426.895 392.194 426 391.09 426C389.985 426 389.09 426.895 389.09 428C389.09 429.105 389.985 430 391.09 430Z" fill="#CCDFFF"/>
<path d="M487.09 478C488.194 478 489.09 477.105 489.09 476C489.09 474.895 488.194 474 487.09 474C485.985 474 485.09 474.895 485.09 476C485.09 477.105 485.985 478 487.09 478Z" fill="#CCDFFF"/>
<path d="M439.09 478C440.194 478 441.09 477.105 441.09 476C441.09 474.895 440.194 474 439.09 474C437.985 474 437.09 474.895 437.09 476C437.09 477.105 437.985 478 439.09 478Z" fill="#CCDFFF"/>
<path d="M391.09 478C392.194 478 393.09 477.105 393.09 476C393.09 474.895 392.194 474 391.09 474C389.985 474 389.09 474.895 389.09 476C389.09 477.105 389.985 478 391.09 478Z" fill="#CCDFFF"/>
<path d="M463.09 430C464.194 430 465.09 429.105 465.09 428C465.09 426.895 464.194 426 463.09 426C461.985 426 461.09 426.895 461.09 428C461.09 429.105 461.985 430 463.09 430Z" fill="#CCDFFF"/>
<path d="M415.09 430C416.194 430 417.09 429.105 417.09 428C417.09 426.895 416.194 426 415.09 426C413.985 426 413.09 426.895 413.09 428C413.09 429.105 413.985 430 415.09 430Z" fill="#CCDFFF"/>
<path d="M367.09 430C368.194 430 369.09 429.105 369.09 428C369.09 426.895 368.194 426 367.09 426C365.985 426 365.09 426.895 365.09 428C365.09 429.105 365.985 430 367.09 430Z" fill="#CCDFFF"/>
<path d="M463.09 478C464.194 478 465.09 477.105 465.09 476C465.09 474.895 464.194 474 463.09 474C461.985 474 461.09 474.895 461.09 476C461.09 477.105 461.985 478 463.09 478Z" fill="#CCDFFF"/>
<path d="M415.09 478C416.194 478 417.09 477.105 417.09 476C417.09 474.895 416.194 474 415.09 474C413.985 474 413.09 474.895 413.09 476C413.09 477.105 413.985 478 415.09 478Z" fill="#CCDFFF"/>
<path d="M367.09 478C368.194 478 369.09 477.105 369.09 476C369.09 474.895 368.194 474 367.09 474C365.985 474 365.09 474.895 365.09 476C365.09 477.105 365.985 478 367.09 478Z" fill="#CCDFFF"/>
<path d="M487.09 454C488.194 454 489.09 453.105 489.09 452C489.09 450.895 488.194 450 487.09 450C485.985 450 485.09 450.895 485.09 452C485.09 453.105 485.985 454 487.09 454Z" fill="#CCDFFF"/>
<path d="M439.09 454C440.194 454 441.09 453.105 441.09 452C441.09 450.895 440.194 450 439.09 450C437.985 450 437.09 450.895 437.09 452C437.09 453.105 437.985 454 439.09 454Z" fill="#CCDFFF"/>
<path d="M391.09 454C392.194 454 393.09 453.105 393.09 452C393.09 450.895 392.194 450 391.09 450C389.985 450 389.09 450.895 389.09 452C389.09 453.105 389.985 454 391.09 454Z" fill="#CCDFFF"/>
<path d="M487.09 502C488.194 502 489.09 501.105 489.09 500C489.09 498.895 488.194 498 487.09 498C485.985 498 485.09 498.895 485.09 500C485.09 501.105 485.985 502 487.09 502Z" fill="#CCDFFF"/>
<path d="M439.09 502C440.194 502 441.09 501.105 441.09 500C441.09 498.895 440.194 498 439.09 498C437.985 498 437.09 498.895 437.09 500C437.09 501.105 437.985 502 439.09 502Z" fill="#CCDFFF"/>
<path d="M391.09 502C392.194 502 393.09 501.105 393.09 500C393.09 498.895 392.194 498 391.09 498C389.985 498 389.09 498.895 389.09 500C389.09 501.105 389.985 502 391.09 502Z" fill="#CCDFFF"/>
<path d="M463.09 454C464.194 454 465.09 453.105 465.09 452C465.09 450.895 464.194 450 463.09 450C461.985 450 461.09 450.895 461.09 452C461.09 453.105 461.985 454 463.09 454Z" fill="#CCDFFF"/>
<path d="M415.09 454C416.194 454 417.09 453.105 417.09 452C417.09 450.895 416.194 450 415.09 450C413.985 450 413.09 450.895 413.09 452C413.09 453.105 413.985 454 415.09 454Z" fill="#CCDFFF"/>
<path d="M367.09 454C368.194 454 369.09 453.105 369.09 452C369.09 450.895 368.194 450 367.09 450C365.985 450 365.09 450.895 365.09 452C365.09 453.105 365.985 454 367.09 454Z" fill="#CCDFFF"/>
<path d="M463.09 502C464.194 502 465.09 501.105 465.09 500C465.09 498.895 464.194 498 463.09 498C461.985 498 461.09 498.895 461.09 500C461.09 501.105 461.985 502 463.09 502Z" fill="#CCDFFF"/>
<path d="M415.09 502C416.194 502 417.09 501.105 417.09 500C417.09 498.895 416.194 498 415.09 498C413.985 498 413.09 498.895 413.09 500C413.09 501.105 413.985 502 415.09 502Z" fill="#CCDFFF"/>
<path d="M367.09 502C368.194 502 369.09 501.105 369.09 500C369.09 498.895 368.194 498 367.09 498C365.985 498 365.09 498.895 365.09 500C365.09 501.105 365.985 502 367.09 502Z" fill="#CCDFFF"/>
<path d="M751.21 94C752.315 94 753.21 93.1046 753.21 92C753.21 90.8954 752.315 90 751.21 90C750.105 90 749.21 90.8954 749.21 92C749.21 93.1046 750.105 94 751.21 94Z" fill="#CCDFFF"/>
<path d="M703.21 94C704.315 94 705.21 93.1046 705.21 92C705.21 90.8954 704.315 90 703.21 90C702.105 90 701.21 90.8954 701.21 92C701.21 93.1046 702.105 94 703.21 94Z" fill="#CCDFFF"/>
<path d="M751.21 142C752.315 142 753.21 141.105 753.21 140C753.21 138.895 752.315 138 751.21 138C750.105 138 749.21 138.895 749.21 140C749.21 141.105 750.105 142 751.21 142Z" fill="#CCDFFF"/>
<path d="M703.21 142C704.315 142 705.21 141.105 705.21 140C705.21 138.895 704.315 138 703.21 138C702.105 138 701.21 138.895 701.21 140C701.21 141.105 702.105 142 703.21 142Z" fill="#CCDFFF"/>
<path d="M751.21 214C752.315 214 753.21 213.105 753.21 212C753.21 210.895 752.315 210 751.21 210C750.105 210 749.21 210.895 749.21 212C749.21 213.105 750.105 214 751.21 214Z" fill="#CCDFFF"/>
<path d="M703.21 214C704.315 214 705.21 213.105 705.21 212C705.21 210.895 704.315 210 703.21 210C702.105 210 701.21 210.895 701.21 212C701.21 213.105 702.105 214 703.21 214Z" fill="#CCDFFF"/>
<path d="M775.21 94C776.315 94 777.21 93.1046 777.21 92C777.21 90.8954 776.315 90 775.21 90C774.105 90 773.21 90.8954 773.21 92C773.21 93.1046 774.105 94 775.21 94Z" fill="#CCDFFF"/>
<path d="M727.21 94C728.315 94 729.21 93.1046 729.21 92C729.21 90.8954 728.315 90 727.21 90C726.105 90 725.21 90.8954 725.21 92C725.21 93.1046 726.105 94 727.21 94Z" fill="#CCDFFF"/>
<path d="M775.21 142C776.315 142 777.21 141.105 777.21 140C777.21 138.895 776.315 138 775.21 138C774.105 138 773.21 138.895 773.21 140C773.21 141.105 774.105 142 775.21 142Z" fill="#CCDFFF"/>
<path d="M775.21 214C776.315 214 777.21 213.105 777.21 212C777.21 210.895 776.315 210 775.21 210C774.105 210 773.21 210.895 773.21 212C773.21 213.105 774.105 214 775.21 214Z" fill="#CCDFFF"/>
<path d="M727.21 142C728.315 142 729.21 141.105 729.21 140C729.21 138.895 728.315 138 727.21 138C726.105 138 725.21 138.895 725.21 140C725.21 141.105 726.105 142 727.21 142Z" fill="#CCDFFF"/>
<path d="M727.21 214C728.315 214 729.21 213.105 729.21 212C729.21 210.895 728.315 210 727.21 210C726.105 210 725.21 210.895 725.21 212C725.21 213.105 726.105 214 727.21 214Z" fill="#CCDFFF"/>
<path d="M751.21 118C752.315 118 753.21 117.105 753.21 116C753.21 114.895 752.315 114 751.21 114C750.105 114 749.21 114.895 749.21 116C749.21 117.105 750.105 118 751.21 118Z" fill="#CCDFFF"/>
<path d="M703.21 118C704.315 118 705.21 117.105 705.21 116C705.21 114.895 704.315 114 703.21 114C702.105 114 701.21 114.895 701.21 116C701.21 117.105 702.105 118 703.21 118Z" fill="#CCDFFF"/>
<path d="M751.21 190C752.315 190 753.21 189.105 753.21 188C753.21 186.895 752.315 186 751.21 186C750.105 186 749.21 186.895 749.21 188C749.21 189.105 750.105 190 751.21 190Z" fill="#CCDFFF"/>
<path d="M703.21 190C704.315 190 705.21 189.105 705.21 188C705.21 186.895 704.315 186 703.21 186C702.105 186 701.21 186.895 701.21 188C701.21 189.105 702.105 190 703.21 190Z" fill="#CCDFFF"/>
<path d="M751.21 166C752.315 166 753.21 165.105 753.21 164C753.21 162.895 752.315 162 751.21 162C750.105 162 749.21 162.895 749.21 164C749.21 165.105 750.105 166 751.21 166Z" fill="#CCDFFF"/>
<path d="M703.21 166C704.315 166 705.21 165.105 705.21 164C705.21 162.895 704.315 162 703.21 162C702.105 162 701.21 162.895 701.21 164C701.21 165.105 702.105 166 703.21 166Z" fill="#CCDFFF"/>
<path d="M751.21 238C752.315 238 753.21 237.105 753.21 236C753.21 234.895 752.315 234 751.21 234C750.105 234 749.21 234.895 749.21 236C749.21 237.105 750.105 238 751.21 238Z" fill="#CCDFFF"/>
<path d="M703.21 238C704.315 238 705.21 237.105 705.21 236C705.21 234.895 704.315 234 703.21 234C702.105 234 701.21 234.895 701.21 236C701.21 237.105 702.105 238 703.21 238Z" fill="#CCDFFF"/>
<path d="M775.21 118C776.315 118 777.21 117.105 777.21 116C777.21 114.895 776.315 114 775.21 114C774.105 114 773.21 114.895 773.21 116C773.21 117.105 774.105 118 775.21 118Z" fill="#CCDFFF"/>
<path d="M775.21 190C776.315 190 777.21 189.105 777.21 188C777.21 186.895 776.315 186 775.21 186C774.105 186 773.21 186.895 773.21 188C773.21 189.105 774.105 190 775.21 190Z" fill="#CCDFFF"/>
<path d="M727.21 118C728.315 118 729.21 117.105 729.21 116C729.21 114.895 728.315 114 727.21 114C726.105 114 725.21 114.895 725.21 116C725.21 117.105 726.105 118 727.21 118Z" fill="#CCDFFF"/>
<path d="M727.21 190C728.315 190 729.21 189.105 729.21 188C729.21 186.895 728.315 186 727.21 186C726.105 186 725.21 186.895 725.21 188C725.21 189.105 726.105 190 727.21 190Z" fill="#CCDFFF"/>
<path d="M775.21 166C776.315 166 777.21 165.105 777.21 164C777.21 162.895 776.315 162 775.21 162C774.105 162 773.21 162.895 773.21 164C773.21 165.105 774.105 166 775.21 166Z" fill="#CCDFFF"/>
<path d="M775.21 238C776.315 238 777.21 237.105 777.21 236C777.21 234.895 776.315 234 775.21 234C774.105 234 773.21 234.895 773.21 236C773.21 237.105 774.105 238 775.21 238Z" fill="#CCDFFF"/>
<path d="M727.21 166C728.315 166 729.21 165.105 729.21 164C729.21 162.895 728.315 162 727.21 162C726.105 162 725.21 162.895 725.21 164C725.21 165.105 726.105 166 727.21 166Z" fill="#CCDFFF"/>
<path d="M727.21 238C728.315 238 729.21 237.105 729.21 236C729.21 234.895 728.315 234 727.21 234C726.105 234 725.21 234.895 725.21 236C725.21 237.105 726.105 238 727.21 238Z" fill="#CCDFFF"/>
<path d="M751.21 262C752.315 262 753.21 261.105 753.21 260C753.21 258.895 752.315 258 751.21 258C750.105 258 749.21 258.895 749.21 260C749.21 261.105 750.105 262 751.21 262Z" fill="#CCDFFF"/>
<path d="M703.21 262C704.315 262 705.21 261.105 705.21 260C705.21 258.895 704.315 258 703.21 258C702.105 258 701.21 258.895 701.21 260C701.21 261.105 702.105 262 703.21 262Z" fill="#CCDFFF"/>
<path d="M751.21 310C752.315 310 753.21 309.105 753.21 308C753.21 306.895 752.315 306 751.21 306C750.105 306 749.21 306.895 749.21 308C749.21 309.105 750.105 310 751.21 310Z" fill="#CCDFFF"/>
<path d="M703.21 310C704.315 310 705.21 309.105 705.21 308C705.21 306.895 704.315 306 703.21 306C702.105 306 701.21 306.895 701.21 308C701.21 309.105 702.105 310 703.21 310Z" fill="#CCDFFF"/>
<path d="M751.21 382C752.315 382 753.21 381.105 753.21 380C753.21 378.895 752.315 378 751.21 378C750.105 378 749.21 378.895 749.21 380C749.21 381.105 750.105 382 751.21 382Z" fill="#CCDFFF"/>
<path d="M703.21 382C704.315 382 705.21 381.105 705.21 380C705.21 378.895 704.315 378 703.21 378C702.105 378 701.21 378.895 701.21 380C701.21 381.105 702.105 382 703.21 382Z" fill="#CCDFFF"/>
<path d="M775.21 262C776.315 262 777.21 261.105 777.21 260C777.21 258.895 776.315 258 775.21 258C774.105 258 773.21 258.895 773.21 260C773.21 261.105 774.105 262 775.21 262Z" fill="#CCDFFF"/>
<path d="M727.21 262C728.315 262 729.21 261.105 729.21 260C729.21 258.895 728.315 258 727.21 258C726.105 258 725.21 258.895 725.21 260C725.21 261.105 726.105 262 727.21 262Z" fill="#CCDFFF"/>
<path d="M775.21 310C776.315 310 777.21 309.105 777.21 308C777.21 306.895 776.315 306 775.21 306C774.105 306 773.21 306.895 773.21 308C773.21 309.105 774.105 310 775.21 310Z" fill="#CCDFFF"/>
<path d="M775.21 382C776.315 382 777.21 381.105 777.21 380C777.21 378.895 776.315 378 775.21 378C774.105 378 773.21 378.895 773.21 380C773.21 381.105 774.105 382 775.21 382Z" fill="#CCDFFF"/>
<path d="M727.21 310C728.315 310 729.21 309.105 729.21 308C729.21 306.895 728.315 306 727.21 306C726.105 306 725.21 306.895 725.21 308C725.21 309.105 726.105 310 727.21 310Z" fill="#CCDFFF"/>
<path d="M727.21 382C728.315 382 729.21 381.105 729.21 380C729.21 378.895 728.315 378 727.21 378C726.105 378 725.21 378.895 725.21 380C725.21 381.105 726.105 382 727.21 382Z" fill="#CCDFFF"/>
<path d="M751.21 286C752.315 286 753.21 285.105 753.21 284C753.21 282.895 752.315 282 751.21 282C750.105 282 749.21 282.895 749.21 284C749.21 285.105 750.105 286 751.21 286Z" fill="#CCDFFF"/>
<path d="M703.21 286C704.315 286 705.21 285.105 705.21 284C705.21 282.895 704.315 282 703.21 282C702.105 282 701.21 282.895 701.21 284C701.21 285.105 702.105 286 703.21 286Z" fill="#CCDFFF"/>
<path d="M751.21 358C752.315 358 753.21 357.105 753.21 356C753.21 354.895 752.315 354 751.21 354C750.105 354 749.21 354.895 749.21 356C749.21 357.105 750.105 358 751.21 358Z" fill="#CCDFFF"/>
<path d="M703.21 358C704.315 358 705.21 357.105 705.21 356C705.21 354.895 704.315 354 703.21 354C702.105 354 701.21 354.895 701.21 356C701.21 357.105 702.105 358 703.21 358Z" fill="#CCDFFF"/>
<path d="M751.21 334C752.315 334 753.21 333.105 753.21 332C753.21 330.895 752.315 330 751.21 330C750.105 330 749.21 330.895 749.21 332C749.21 333.105 750.105 334 751.21 334Z" fill="#CCDFFF"/>
<path d="M703.21 334C704.315 334 705.21 333.105 705.21 332C705.21 330.895 704.315 330 703.21 330C702.105 330 701.21 330.895 701.21 332C701.21 333.105 702.105 334 703.21 334Z" fill="#CCDFFF"/>
<path d="M751.21 406C752.315 406 753.21 405.105 753.21 404C753.21 402.895 752.315 402 751.21 402C750.105 402 749.21 402.895 749.21 404C749.21 405.105 750.105 406 751.21 406Z" fill="#CCDFFF"/>
<path d="M703.21 406C704.315 406 705.21 405.105 705.21 404C705.21 402.895 704.315 402 703.21 402C702.105 402 701.21 402.895 701.21 404C701.21 405.105 702.105 406 703.21 406Z" fill="#CCDFFF"/>
<path d="M775.21 286C776.315 286 777.21 285.105 777.21 284C777.21 282.895 776.315 282 775.21 282C774.105 282 773.21 282.895 773.21 284C773.21 285.105 774.105 286 775.21 286Z" fill="#CCDFFF"/>
<path d="M775.21 358C776.315 358 777.21 357.105 777.21 356C777.21 354.895 776.315 354 775.21 354C774.105 354 773.21 354.895 773.21 356C773.21 357.105 774.105 358 775.21 358Z" fill="#CCDFFF"/>
<path d="M727.21 286C728.315 286 729.21 285.105 729.21 284C729.21 282.895 728.315 282 727.21 282C726.105 282 725.21 282.895 725.21 284C725.21 285.105 726.105 286 727.21 286Z" fill="#CCDFFF"/>
<path d="M727.21 358C728.315 358 729.21 357.105 729.21 356C729.21 354.895 728.315 354 727.21 354C726.105 354 725.21 354.895 725.21 356C725.21 357.105 726.105 358 727.21 358Z" fill="#CCDFFF"/>
<path d="M775.21 334C776.315 334 777.21 333.105 777.21 332C777.21 330.895 776.315 330 775.21 330C774.105 330 773.21 330.895 773.21 332C773.21 333.105 774.105 334 775.21 334Z" fill="#CCDFFF"/>
<path d="M775.21 406C776.315 406 777.21 405.105 777.21 404C777.21 402.895 776.315 402 775.21 402C774.105 402 773.21 402.895 773.21 404C773.21 405.105 774.105 406 775.21 406Z" fill="#CCDFFF"/>
<path d="M727.21 334C728.315 334 729.21 333.105 729.21 332C729.21 330.895 728.315 330 727.21 330C726.105 330 725.21 330.895 725.21 332C725.21 333.105 726.105 334 727.21 334Z" fill="#CCDFFF"/>
<path d="M727.21 406C728.315 406 729.21 405.105 729.21 404C729.21 402.895 728.315 402 727.21 402C726.105 402 725.21 402.895 725.21 404C725.21 405.105 726.105 406 727.21 406Z" fill="#CCDFFF"/>
<path d="M751.21 46C752.315 46 753.21 45.1046 753.21 44C753.21 42.8954 752.315 42 751.21 42C750.105 42 749.21 42.8954 749.21 44C749.21 45.1046 750.105 46 751.21 46Z" fill="#CCDFFF"/>
<path d="M703.21 46C704.315 46 705.21 45.1046 705.21 44C705.21 42.8954 704.315 42 703.21 42C702.105 42 701.21 42.8954 701.21 44C701.21 45.1046 702.105 46 703.21 46Z" fill="#CCDFFF"/>
<path d="M775.21 46C776.315 46 777.21 45.1046 777.21 44C777.21 42.8954 776.315 42 775.21 42C774.105 42 773.21 42.8954 773.21 44C773.21 45.1046 774.105 46 775.21 46Z" fill="#CCDFFF"/>
<path d="M727.21 46C728.315 46 729.21 45.1046 729.21 44C729.21 42.8954 728.315 42 727.21 42C726.105 42 725.21 42.8954 725.21 44C725.21 45.1046 726.105 46 727.21 46Z" fill="#CCDFFF"/>
<path d="M751.21 22C752.315 22 753.21 21.1046 753.21 20C753.21 18.8954 752.315 18 751.21 18C750.105 18 749.21 18.8954 749.21 20C749.21 21.1046 750.105 22 751.21 22Z" fill="#CCDFFF"/>
<path d="M703.21 22C704.315 22 705.21 21.1046 705.21 20C705.21 18.8954 704.315 18 703.21 18C702.105 18 701.21 18.8954 701.21 20C701.21 21.1046 702.105 22 703.21 22Z" fill="#CCDFFF"/>
<path d="M751.21 70C752.315 70 753.21 69.1046 753.21 68C753.21 66.8954 752.315 66 751.21 66C750.105 66 749.21 66.8954 749.21 68C749.21 69.1046 750.105 70 751.21 70Z" fill="#CCDFFF"/>
<path d="M703.21 70C704.315 70 705.21 69.1046 705.21 68C705.21 66.8954 704.315 66 703.21 66C702.105 66 701.21 66.8954 701.21 68C701.21 69.1046 702.105 70 703.21 70Z" fill="#CCDFFF"/>
<path d="M775.21 22C776.315 22 777.21 21.1046 777.21 20C777.21 18.8954 776.315 18 775.21 18C774.105 18 773.21 18.8954 773.21 20C773.21 21.1046 774.105 22 775.21 22Z" fill="#CCDFFF"/>
<path d="M727.21 22C728.315 22 729.21 21.1046 729.21 20C729.21 18.8954 728.315 18 727.21 18C726.105 18 725.21 18.8954 725.21 20C725.21 21.1046 726.105 22 727.21 22Z" fill="#CCDFFF"/>
<path d="M775.21 70C776.315 70 777.21 69.1046 777.21 68C777.21 66.8954 776.315 66 775.21 66C774.105 66 773.21 66.8954 773.21 68C773.21 69.1046 774.105 70 775.21 70Z" fill="#CCDFFF"/>
<path d="M727.21 70C728.315 70 729.21 69.1046 729.21 68C729.21 66.8954 728.315 66 727.21 66C726.105 66 725.21 66.8954 725.21 68C725.21 69.1046 726.105 70 727.21 70Z" fill="#CCDFFF"/>
<path d="M751.21 430C752.315 430 753.21 429.105 753.21 428C753.21 426.895 752.315 426 751.21 426C750.105 426 749.21 426.895 749.21 428C749.21 429.105 750.105 430 751.21 430Z" fill="#CCDFFF"/>
<path d="M703.21 430C704.315 430 705.21 429.105 705.21 428C705.21 426.895 704.315 426 703.21 426C702.105 426 701.21 426.895 701.21 428C701.21 429.105 702.105 430 703.21 430Z" fill="#CCDFFF"/>
<path d="M751.21 478C752.315 478 753.21 477.105 753.21 476C753.21 474.895 752.315 474 751.21 474C750.105 474 749.21 474.895 749.21 476C749.21 477.105 750.105 478 751.21 478Z" fill="#CCDFFF"/>
<path d="M703.21 478C704.315 478 705.21 477.105 705.21 476C705.21 474.895 704.315 474 703.21 474C702.105 474 701.21 474.895 701.21 476C701.21 477.105 702.105 478 703.21 478Z" fill="#CCDFFF"/>
<path d="M775.21 430C776.315 430 777.21 429.105 777.21 428C777.21 426.895 776.315 426 775.21 426C774.105 426 773.21 426.895 773.21 428C773.21 429.105 774.105 430 775.21 430Z" fill="#CCDFFF"/>
<path d="M727.21 430C728.315 430 729.21 429.105 729.21 428C729.21 426.895 728.315 426 727.21 426C726.105 426 725.21 426.895 725.21 428C725.21 429.105 726.105 430 727.21 430Z" fill="#CCDFFF"/>
<path d="M775.21 478C776.315 478 777.21 477.105 777.21 476C777.21 474.895 776.315 474 775.21 474C774.105 474 773.21 474.895 773.21 476C773.21 477.105 774.105 478 775.21 478Z" fill="#CCDFFF"/>
<path d="M727.21 478C728.315 478 729.21 477.105 729.21 476C729.21 474.895 728.315 474 727.21 474C726.105 474 725.21 474.895 725.21 476C725.21 477.105 726.105 478 727.21 478Z" fill="#CCDFFF"/>
<path d="M751.21 454C752.315 454 753.21 453.105 753.21 452C753.21 450.895 752.315 450 751.21 450C750.105 450 749.21 450.895 749.21 452C749.21 453.105 750.105 454 751.21 454Z" fill="#CCDFFF"/>
<path d="M703.21 454C704.315 454 705.21 453.105 705.21 452C705.21 450.895 704.315 450 703.21 450C702.105 450 701.21 450.895 701.21 452C701.21 453.105 702.105 454 703.21 454Z" fill="#CCDFFF"/>
<path d="M751.21 502C752.315 502 753.21 501.105 753.21 500C753.21 498.895 752.315 498 751.21 498C750.105 498 749.21 498.895 749.21 500C749.21 501.105 750.105 502 751.21 502Z" fill="#CCDFFF"/>
<path d="M703.21 502C704.315 502 705.21 501.105 705.21 500C705.21 498.895 704.315 498 703.21 498C702.105 498 701.21 498.895 701.21 500C701.21 501.105 702.105 502 703.21 502Z" fill="#CCDFFF"/>
<path d="M775.21 454C776.315 454 777.21 453.105 777.21 452C777.21 450.895 776.315 450 775.21 450C774.105 450 773.21 450.895 773.21 452C773.21 453.105 774.105 454 775.21 454Z" fill="#CCDFFF"/>
<path d="M727.21 454C728.315 454 729.21 453.105 729.21 452C729.21 450.895 728.315 450 727.21 450C726.105 450 725.21 450.895 725.21 452C725.21 453.105 726.105 454 727.21 454Z" fill="#CCDFFF"/>
<path d="M775.21 502C776.315 502 777.21 501.105 777.21 500C777.21 498.895 776.315 498 775.21 498C774.105 498 773.21 498.895 773.21 500C773.21 501.105 774.105 502 775.21 502Z" fill="#CCDFFF"/>
<path d="M727.21 502C728.315 502 729.21 501.105 729.21 500C729.21 498.895 728.315 498 727.21 498C726.105 498 725.21 498.895 725.21 500C725.21 501.105 726.105 502 727.21 502Z" fill="#CCDFFF"/>
<path d="M1060.55 452.93V471.71H975.19C980.03 471.23 984 470.58 986.44 469.71C995.63 466.43 1008.14 462.43 1018.33 452.93H1060.55ZM633.7 241.14C633.7 241.14 613.2 226.27 599.2 250.1C624.12 263.9 633.7 241.14 633.7 241.14ZM716.04 427.56C716.04 427.56 686.13 409.57 669.72 443.95C705.58 459.96 716.04 427.56 716.04 427.56ZM663.81 228.81C665.63 223.99 666.29 219.83 666.16 216.23C672.07 218.45 679.79 218.8 689.81 215.23C686.27 206.03 681.64 200.37 676.76 197C679.44 195.05 682.11 192.3 684.67 188.51C661.29 173.56 649.88 193.07 648.68 195.29C648.68 195.29 648.66 195.33 648.63 195.4C648.6 195.46 648.57 195.51 648.57 195.51C648.57 195.51 648.54 195.57 648.52 195.61C647.2 198.33 638.46 218.49 663.82 228.81H663.81ZM830.7 372.34C830.7 372.3 830.7 372.27 830.7 372.23C830.7 372.23 830.7 372.18 830.7 372.11C830.7 372.04 830.7 371.99 830.7 371.99C830.66 369.46 829.49 346.9 801.85 349.42C802.38 353.97 803.49 357.63 804.97 360.6C799.09 361.35 792.37 364.24 785 370.79C792.26 378.56 799.28 381.81 805.55 382.55C803.78 385.69 802.45 389.69 801.86 394.8C829.12 397.29 830.63 375.37 830.71 372.35L830.7 372.34ZM1031.53 53.45C1024.54 50.45 1020.29 52.59 1017.87 55.11L989.92 13L985.77 21.43C982.6 27.87 983.04 35.5 986.93 41.53L996.47 56.32L985.32 61.19L986.57 66.24C986.57 66.24 1003.57 68.06 1017.14 61.45C1022.55 59.96 1031.54 53.46 1031.54 53.46L1031.53 53.45ZM874.98 107.79C872.83 103.88 866.76 103.23 865.45 108.95C854.44 105.21 845.94 79.56 845.94 79.56L843.04 85.44C840.83 89.93 841.14 95.26 843.85 99.47L845.91 102.66C846.58 103.7 846.95 104.84 847.04 105.97C847.37 109.93 843.94 113.21 839.97 113.12L836.55 113.04V116.86C836.55 116.86 855.47 117.97 864.94 113.36C868.71 112.32 874.99 107.78 874.99 107.78L874.98 107.79ZM1029.68 119.18C1030.5 118.81 1031.57 118.46 1032.97 118.15C1037.1 117.26 1039.5 115.86 1040.43 115.24C1041.13 115.15 1041.86 115.06 1042.63 114.96C1042.63 114.96 1039.96 112.18 1038.24 111.18C1035.48 109.57 1033.1 109.69 1030.57 111.62C1028.61 113.11 1028.07 115.04 1027.92 116.15C1021.37 117.39 1013.56 119.85 1006.56 124.68C1006.56 124.68 1013.68 122.78 1012 133.94C1011.69 139.95 1022.01 146.73 1022.01 146.73C1022.01 146.73 1024.27 142.2 1024.94 135.06C1025.2 135.27 1025.47 135.46 1025.75 135.64L1035.8 142.15C1035.8 142.15 1038.4 132.42 1030.21 120.01C1030.01 119.7 1029.83 119.43 1029.67 119.17L1029.68 119.18ZM935.36 72.43L947.87 71.47C947.87 71.47 946.26 66.22 937.72 66.14C934.42 66.11 931.46 67.64 929.23 69.29C919.67 65.65 908.79 66.8 899.96 72.31L899.49 72.61L910.88 78.8C910.88 78.8 924.85 76.14 930.33 91.18C935.81 106.22 946.05 106.44 946.05 106.44C946.05 106.44 945.95 79.91 935.36 72.43ZM807.62 143.27L816.12 141.68C816.12 141.68 814.62 138.2 808.77 138.79C806.51 139.02 804.6 140.29 803.19 141.58C796.37 139.8 789 141.4 783.35 145.84L783.05 146.08L791.32 149.47C791.32 149.47 800.7 146.6 805.58 156.5C810.46 166.4 817.49 165.78 817.49 165.78C817.49 165.78 815.44 147.61 807.62 143.28V143.27ZM656.61 388.78C656.61 388.78 655.28 381.37 647.85 382.85L643.89 383.63C642.02 384 640.11 383.98 638.26 383.6C636.8 383.3 635.47 382.52 634.47 381.41L620.55 383.69L618.45 382.83L599.58 393.65L607.82 415.62L650.2 392.37L650.16 392.31L656.6 388.78H656.61ZM464.22 322.72V262.22C464.22 256.57 468.8 251.99 474.45 251.99L492.16 317.63C492.16 317.63 473.52 318.27 464.22 322.72ZM487.87 333.12H574.55V351.52H522.74C508.79 351.52 495.74 344.63 487.87 333.12ZM495.91 197.18V253.66L484.48 225.04C482.43 219.92 481.38 214.45 481.38 208.93V204.77L495.91 197.19V197.18ZM393.73 439.63H441.29L439.55 436.47C438.07 433.79 435.44 431.93 432.42 431.43L418.59 429.16L415.02 420.36H395.91L393.73 439.63ZM348.99 439.63H327.05L303.95 417.86L318.9 406.34L332.44 417.86L333.4 430.42H337.71C342.8 430.42 347.28 433.78 348.7 438.66L348.98 439.62L348.99 439.63ZM166.87 287.71V256.03H153.31V299.03L166.87 287.7V287.71ZM153.31 345.59V385.92C153.31 391.56 148.74 396.13 143.1 396.13H128.21C124.47 396.13 121.43 399.16 121.43 402.91C121.43 406.66 124.46 409.69 128.21 409.69H143.1C156.23 409.69 166.87 399.05 166.87 385.92V343.54L161.28 345.59L158.15 340.85L153.31 345.59ZM245.84 311.2C245.84 316.46 250.1 320.72 255.36 320.72C260.62 320.72 264.88 316.46 264.88 311.2C264.88 305.94 255.36 288.96 255.36 288.96C255.36 288.96 245.84 305.94 245.84 311.2ZM245.84 462.37C245.84 467.63 250.1 471.89 255.36 471.89C260.62 471.89 264.88 467.63 264.88 462.37C264.88 457.11 255.36 440.13 255.36 440.13C255.36 440.13 245.84 457.11 245.84 462.37ZM302.04 55.23H362.74C362.74 55.23 359.98 39.79 341.43 42.46C328.25 26.37 303.04 34.74 302.04 55.23ZM38 74.76H159.41C159.41 74.76 153.89 43.88 116.78 49.22C90.42 17.04 40 33.78 38 74.76ZM785.68 234.54C789.07 204.5 816.16 210.24 816.16 210.24C816.16 210.24 816.71 237.25 785.68 234.54ZM312.36 499.73C312.36 493.1 306.99 487.73 300.36 487.73H171.41C164.78 487.73 159.41 493.1 159.41 499.73C159.41 506.36 164.78 511.73 171.41 511.73H300.36C306.99 511.73 312.36 506.36 312.36 499.73ZM359.78 487.63C353.12 487.63 347.73 493.03 347.73 499.68C347.73 506.33 353.13 511.73 359.78 511.73C366.43 511.73 371.83 506.33 371.83 499.68C371.83 493.03 366.43 487.63 359.78 487.63ZM930.94 299.17L918.38 270.39C915.35 270.39 912.89 267.93 912.89 264.9V264.8C912.89 261.77 915.35 259.31 918.38 259.31H954.68L930.94 299.16V299.17ZM436.26 106.99H420.6L417.75 85.1C417.75 85.1 434.79 86.55 436.27 106.99H436.26Z" fill="url(#paint0_linear_813_14434)"/>
<path d="M900.37 202.54V224.68C900.37 246.8 910.51 256.12 930.81 243.92" stroke="#6A2EA0" stroke-width="3" stroke-linecap="round" stroke-linejoin="round"/>
<path d="M900.37 211.8C900.37 211.8 889.63 230.18 900.19 227.62" stroke="#6A2EA0" stroke-width="3" stroke-linecap="round" stroke-linejoin="round"/>
<path d="M902.3 238.8C902.3 238.8 907.63 238.39 911.85 233.36" stroke="#6A2EA0" stroke-width="3" stroke-linecap="round" stroke-linejoin="round"/>
<path d="M928.36 246.76V259.32" stroke="#6A2EA0" stroke-width="3" stroke-linecap="round" stroke-linejoin="round"/>
<path d="M430.91 106.79C430.91 106.79 436.49 135.44 425.03 139.8" stroke="#6A2EA0" stroke-width="3" stroke-linecap="round" stroke-linejoin="round"/>
<path d="M432.12 116.86C432.12 116.86 438.72 125.62 432.27 125.62" stroke="#6A2EA0" stroke-width="3" stroke-linecap="round" stroke-linejoin="round"/>
<path d="M525.39 191.45C525.39 191.45 533.14 200.9 526.05 200.9" stroke="#6A2EA0" stroke-width="3" stroke-linecap="round" stroke-linejoin="round"/>
<path d="M419.45 154.42C407.59 136.6 390.36 145.87 390.36 145.87L365.55 195.27C361.61 203.11 362.29 212.48 367.33 219.67L395.72 260.22L415.61 249.92L390.66 206.28L382.92 204.12" stroke="#6A2EA0" stroke-width="3" stroke-linecap="round" stroke-linejoin="round"/>
<path d="M409.61 175.63L391.23 205.48" stroke="#6A2EA0" stroke-width="3" stroke-linecap="round" stroke-linejoin="round"/>
<path d="M381.61 209.83L384.8 209.37" stroke="#6A2EA0" stroke-width="3" stroke-linecap="round" stroke-linejoin="round"/>
<path d="M389.78 146.6C382.82 140.1 378.46 130.83 378.46 120.55C378.46 100.87 394.41 84.9099 414.1 84.9099C415.33 84.9099 416.55 84.9699 417.74 85.0899L426.71 153.88L447.13 293.62C447.13 293.62 401.07 306.83 350.57 280L372.87 227.6" stroke="#6A2EA0" stroke-width="3" stroke-linecap="round" stroke-linejoin="round"/>
<path d="M398.85 267.63C398.85 267.63 406.05 282.97 422.08 278.25" stroke="#6A2EA0" stroke-width="3" stroke-linecap="round" stroke-linejoin="round"/>
<path d="M387.81 272.42L418.57 256.5" stroke="#6A2EA0" stroke-width="3" stroke-linecap="round" stroke-linejoin="round"/>
<path d="M403.19 304.06L395.28 411.63H422.09L439.22 295.26" stroke="#6A2EA0" stroke-width="3" stroke-linecap="round" stroke-linejoin="round"/>
<path d="M417.25 404.25H395.92" stroke="#6A2EA0" stroke-width="3" stroke-linecap="round" stroke-linejoin="round"/>
<path d="M324.54 395.8L344.75 411.63L401.97 320.77" stroke="#6A2EA0" stroke-width="3" stroke-linecap="round" stroke-linejoin="round"/>
<path d="M324.54 395.8L371.34 306.92V289.04" stroke="#6A2EA0" stroke-width="3" stroke-linecap="round" stroke-linejoin="round"/>
<path d="M332.46 391.63L347.94 404.25" stroke="#6A2EA0" stroke-width="3" stroke-linecap="round" stroke-linejoin="round"/>
<path d="M395.5 424.09H416.55" stroke="#6A2EA0" stroke-width="3" stroke-linecap="round" stroke-linejoin="round"/>
<path d="M397.72 412.26L397.11 423.47" stroke="#6A2EA0" stroke-width="3" stroke-linecap="round" stroke-linejoin="round"/>
<path d="M415.37 412.26L414.76 423.47" stroke="#6A2EA0" stroke-width="3" stroke-linecap="round" stroke-linejoin="round"/>
<path d="M331.36 432.48L333.42 430.42" stroke="#6A2EA0" stroke-width="3" stroke-linecap="round" stroke-linejoin="round"/>
<path d="M315.96 407.86L332.76 421.74" stroke="#6A2EA0" stroke-width="3" stroke-linecap="round" stroke-linejoin="round"/>
<path d="M338.97 407.86L330.46 419.84" stroke="#6A2EA0" stroke-width="3" stroke-linecap="round" stroke-linejoin="round"/>
<path d="M326.48 397.33L317.79 409.37" stroke="#6A2EA0" stroke-width="3" stroke-linecap="round" stroke-linejoin="round"/>
<path d="M488.46 437.63C521.597 437.63 548.46 410.767 548.46 377.63C548.46 344.493 521.597 317.63 488.46 317.63C455.323 317.63 428.46 344.493 428.46 377.63C428.46 410.767 455.323 437.63 488.46 437.63Z" stroke="#6A2EA0" stroke-width="3" stroke-linecap="round" stroke-linejoin="round"/>
<path d="M561.94 437.63C572.594 437.63 581.23 428.994 581.23 418.34C581.23 407.686 572.594 399.05 561.94 399.05C551.287 399.05 542.65 407.686 542.65 418.34C542.65 428.994 551.287 437.63 561.94 437.63Z" stroke="#6A2EA0" stroke-width="3" stroke-linecap="round" stroke-linejoin="round"/>
<path d="M488.46 384.95C492.502 384.95 495.78 381.673 495.78 377.63C495.78 373.587 492.502 370.31 488.46 370.31C484.417 370.31 481.14 373.587 481.14 377.63C481.14 381.673 484.417 384.95 488.46 384.95Z" stroke="#6A2EA0" stroke-width="3" stroke-linecap="round" stroke-linejoin="round"/>
<path d="M488.46 317.63V370.31" stroke="#6A2EA0" stroke-width="3" stroke-linecap="round" stroke-linejoin="round"/>
<path d="M488.46 385.29V436.76" stroke="#6A2EA0" stroke-width="3" stroke-linecap="round" stroke-linejoin="round"/>
<path d="M574.56 377.63H495.78" stroke="#6A2EA0" stroke-width="3" stroke-linecap="round" stroke-linejoin="round"/>
<path d="M480.37 377.63H428.89" stroke="#6A2EA0" stroke-width="3" stroke-linecap="round" stroke-linejoin="round"/>
<path d="M530.58 335.07L493.53 372.13" stroke="#6A2EA0" stroke-width="3" stroke-linecap="round" stroke-linejoin="round"/>
<path d="M482.74 382.92L446.34 419.32" stroke="#6A2EA0" stroke-width="3" stroke-linecap="round" stroke-linejoin="round"/>
<path d="M530.27 419.62L493.53 382.88" stroke="#6A2EA0" stroke-width="3" stroke-linecap="round" stroke-linejoin="round"/>
<path d="M482.43 371.78L446.03 335.38" stroke="#6A2EA0" stroke-width="3" stroke-linecap="round" stroke-linejoin="round"/>
<path d="M561.94 421.35C563.696 421.35 565.12 419.926 565.12 418.17C565.12 416.414 563.696 414.99 561.94 414.99C560.183 414.99 558.76 416.414 558.76 418.17C558.76 419.926 560.183 421.35 561.94 421.35Z" stroke="#6A2EA0" stroke-width="3" stroke-linecap="round" stroke-linejoin="round"/>
<path d="M532.89 175.91L476.46 208.37L482.06 175.42C483.78 165.33 494.47 159.5 503.88 163.52L532.88 175.91H532.89Z" stroke="#6A2EA0" stroke-width="3" stroke-linecap="round" stroke-linejoin="round"/>
<path d="M525.39 180.46V202.5C525.39 208.56 520.08 213.25 514.07 212.51L505.39 211.44" stroke="#6A2EA0" stroke-width="3" stroke-linecap="round" stroke-linejoin="round"/>
<path d="M485.99 226.24C476.88 235.2 473.27 248.5 476.79 260.97L486.01 293.63" stroke="#6A2EA0" stroke-width="3" stroke-linecap="round" stroke-linejoin="round"/>
<path d="M616.46 385.29L603.3 328.74C601.04 319.05 593.45 311.49 583.74 309.29L538.32 299.01" stroke="#6A2EA0" stroke-width="3" stroke-linecap="round" stroke-linejoin="round"/>
<path d="M488.46 317.63H560.33C568.19 317.63 574.56 324 574.56 331.86V377.63L607.83 415.63L650.21 392.38" stroke="#6A2EA0" stroke-width="3" stroke-linecap="round" stroke-linejoin="round"/>
<path d="M602.9 394.36L584.04 360.26C579.7 352.42 577.86 343.44 578.76 334.53L579.17 330.42" stroke="#6A2EA0" stroke-width="3" stroke-linecap="round" stroke-linejoin="round"/>
<path d="M495.78 180.46L479.98 187.67" stroke="#6A2EA0" stroke-width="3" stroke-linecap="round" stroke-linejoin="round"/>
<path d="M508.71 212.59L506.63 223.63" stroke="#6A2EA0" stroke-width="3" stroke-linecap="round" stroke-linejoin="round"/>
<path d="M500.08 222.79C507.79 225.01 514.39 230.02 518.62 236.83L553.21 292.56L589.24 302.57C600.34 305.65 608.85 314.58 611.39 325.81L623.77 380.43" stroke="#6A2EA0" stroke-width="3" stroke-linecap="round" stroke-linejoin="round"/>
<path d="M538.31 291.63L512.05 282.75L505.19 255.3C503.48 248.44 497.31 243.62 490.24 243.62H486" stroke="#6A2EA0" stroke-width="3" stroke-linecap="round" stroke-linejoin="round"/>
<path d="M505.69 282.75H512.06" stroke="#6A2EA0" stroke-width="3" stroke-linecap="round" stroke-linejoin="round"/>
<path d="M492.83 295.63L492.98 295.88C494.96 299.19 498.53 301.21 502.39 301.21" stroke="#6A2EA0" stroke-width="3" stroke-linecap="round" stroke-linejoin="round"/>
<path d="M620.46 391.63L623.79 385.29" stroke="#6A2EA0" stroke-width="3" stroke-linecap="round" stroke-linejoin="round"/>
<path d="M629.03 387.14C629.03 387.14 632.74 390.25 639.78 388.18C647.32 385.97 650.22 392.29 650.22 392.29" stroke="#6A2EA0" stroke-width="3" stroke-linecap="round" stroke-linejoin="round"/>
<path d="M509.67 439.63H747.79C761.04 439.63 771.79 450.38 771.79 463.63C771.79 476.88 761.04 487.63 747.79 487.63H625.67" stroke="#6A2EA0" stroke-width="3" stroke-linecap="round" stroke-linejoin="round" stroke-dasharray="0.2 7 0.2 7"/>
<path d="M621.54 487.63H544.96" stroke="#6A2EA0" stroke-width="3" stroke-linecap="round" stroke-linejoin="round"/>
<path d="M496.34 439.63H234.09" stroke="#6A2EA0" stroke-width="3" stroke-linecap="round" stroke-linejoin="round"/>
<path d="M62.21 254.76C62.21 254.76 62.21 254.75 62.21 254.74C62.21 201.04 105.75 157.5 159.45 157.5C213.15 157.5 256.69 201.04 256.69 254.74C256.69 254.74 256.69 254.75 256.69 254.76H62.21V254.76Z" stroke="#6A2EA0" stroke-width="3" stroke-linecap="round" stroke-linejoin="round"/>
<path d="M245.86 386.78C245.86 392.04 250.12 396.3 255.38 396.3C260.64 396.3 264.9 392.04 264.9 386.78C264.9 381.52 255.38 364.54 255.38 364.54C255.38 364.54 245.86 381.52 245.86 386.78Z" stroke="#6A2EA0" stroke-width="3" stroke-linecap="round" stroke-linejoin="round"/>
<path d="M103.84 87.81H284.31C284.31 87.81 276.1 41.91 220.95 49.85C181.76 2.00005 106.82 26.9 103.84 87.81Z" stroke="#6A2EA0" stroke-width="3" stroke-linecap="round" stroke-linejoin="round"/>
<path d="M276.681 113.56V229.92" stroke="#6A2EA0" stroke-width="3" stroke-linecap="round" stroke-linejoin="round" stroke-dasharray="0.2 7 0.2 7"/>
<path d="M255.38 113.56V190.96" stroke="#6A2EA0" stroke-width="3" stroke-linecap="round" stroke-linejoin="round" stroke-dasharray="0.2 7 0.2 7"/>
<path d="M234.09 113.56V164.14" stroke="#6A2EA0" stroke-width="3" stroke-linecap="round" stroke-linejoin="round" stroke-dasharray="0.2 7 0.2 7"/>
<path d="M212.8 113.56V153.19" stroke="#6A2EA0" stroke-width="3" stroke-linecap="round" stroke-linejoin="round" stroke-dasharray="0.2 7 0.2 7"/>
<path d="M191.5 113.56V135.92" stroke="#6A2EA0" stroke-width="3" stroke-linecap="round" stroke-linejoin="round" stroke-dasharray="0.2 7 0.2 7"/>
<path d="M170.21 113.56V122.07" stroke="#6A2EA0" stroke-width="3" stroke-linecap="round" stroke-linejoin="round" stroke-dasharray="0.2 7 0.2 7"/>
<path d="M148.92 113.56V122.07" stroke="#6A2EA0" stroke-width="3" stroke-linecap="round" stroke-linejoin="round" stroke-dasharray="0.2 7 0.2 7"/>
<path d="M127.62 113.56V135.92" stroke="#6A2EA0" stroke-width="3" stroke-linecap="round" stroke-linejoin="round" stroke-dasharray="0.2 7 0.2 7"/>
<path d="M106.33 113.56V153.19" stroke="#6A2EA0" stroke-width="3" stroke-linecap="round" stroke-linejoin="round" stroke-dasharray="0.2 7 0.2 7"/>
<path d="M85.04 113.56V164.14" stroke="#6A2EA0" stroke-width="3" stroke-linecap="round" stroke-linejoin="round" stroke-dasharray="0.2 7 0.2 7"/>
<path d="M63.75 113.56V190.96" stroke="#6A2EA0" stroke-width="3" stroke-linecap="round" stroke-linejoin="round" stroke-dasharray="0.2 7 0.2 7"/>
<path d="M42.4502 113.56V229.92" stroke="#6A2EA0" stroke-width="3" stroke-linecap="round" stroke-linejoin="round" stroke-dasharray="0.2 7 0.2 7"/>
<path d="M159.45 141.92V254.76" stroke="#6A2EA0" stroke-width="3" stroke-linecap="round" stroke-linejoin="round"/>
<path d="M105.68 254.76C105.68 254.76 108.84 182.88 159.45 157.62" stroke="#6A2EA0" stroke-width="3" stroke-linecap="round" stroke-linejoin="round"/>
<path d="M214.78 254.76C214.78 254.76 212.08 182.88 159.11 157.62" stroke="#6A2EA0" stroke-width="3" stroke-linecap="round" stroke-linejoin="round"/>
<path d="M830.78 303.65C856.97 294.81 862.72 319.47 862.72 319.47C862.72 319.47 840.57 330.4 830.78 303.65Z" stroke="#6A2EA0" stroke-width="3" stroke-linecap="round" stroke-linejoin="round"/>
<path d="M674.4 270.73C693.02 264.34 697.21 281.88 697.21 281.88C697.21 281.88 681.47 289.75 674.4 270.73Z" stroke="#6A2EA0" stroke-width="3" stroke-linecap="round" stroke-linejoin="round"/>
<path d="M63.75 317.05H132.56C132.56 317.05 126.35 304.87 136.13 291.06C144.56 279.15 144.16 266.43 144.16 266.43C144.16 266.43 153.32 265.56 153.32 275.58V296.94" stroke="#6A2EA0" stroke-width="3" stroke-linecap="round" stroke-linejoin="round"/>
<path d="M174.52 293.32L145.82 322.16" stroke="#6A2EA0" stroke-width="3" stroke-linecap="round" stroke-linejoin="round"/>
<path d="M145.82 337.92L175.4 308.2" stroke="#6A2EA0" stroke-width="3" stroke-linecap="round" stroke-linejoin="round"/>
<path d="M175.4 334.73V296.16C175.4 288.68 166.35 284.94 161.07 290.25L148.66 302.72C146.84 304.54 145.82 307.01 145.82 309.59V338.47C145.82 344.03 152.54 346.82 156.48 342.88L175.4 323.97" stroke="#6A2EA0" stroke-width="3" stroke-linecap="round" stroke-linejoin="round"/>
<path d="M681.06 212.2C681.06 212.2 660.3 204.87 636.02 186.36" stroke="#6A2EA0" stroke-width="3" stroke-linecap="round" stroke-linejoin="round"/>
<path d="M794.15 372.11C794.15 372.11 815.96 375.14 846.03 369.87" stroke="#6A2EA0" stroke-width="3" stroke-linecap="round" stroke-linejoin="round"/>
<path d="M732.3 170.92L658.02 105.37L528.34 44.1599L441.3 28.6099" stroke="#6A2EA0" stroke-width="3" stroke-linecap="round" stroke-linejoin="round"/>
<path d="M629.33 42.0698L639.26 96.5098" stroke="#6A2EA0" stroke-width="3" stroke-linecap="round" stroke-linejoin="round"/>
<path d="M672.41 118.07L548.57 127.16L514.42 103.42" stroke="#6A2EA0" stroke-width="3" stroke-linecap="round" stroke-linejoin="round"/>
<path d="M724.55 116.16L713.7 154.51" stroke="#6A2EA0" stroke-width="3" stroke-linecap="round" stroke-linejoin="round"/>
<path d="M658.2 48.9299L634.29 64.2199" stroke="#6A2EA0" stroke-width="3" stroke-linecap="round" stroke-linejoin="round"/>
<path d="M514.42 131.87L534.99 117.72" stroke="#6A2EA0" stroke-width="3" stroke-linecap="round" stroke-linejoin="round"/>
<path d="M613.71 148.59L621.51 124.33" stroke="#6A2EA0" stroke-width="3" stroke-linecap="round" stroke-linejoin="round"/>
<path d="M554.189 14.9399L580.029 68.5499" stroke="#6A2EA0" stroke-width="3" stroke-linecap="round" stroke-linejoin="round"/>
<path d="M593.99 30.79L571.62 50.32" stroke="#6A2EA0" stroke-width="3" stroke-linecap="round" stroke-linejoin="round"/>
<path d="M471.46 70.76L490.42 39.05" stroke="#6A2EA0" stroke-width="3" stroke-linecap="round" stroke-linejoin="round"/>
<path d="M567.12 97.02L577.66 125.03" stroke="#6A2EA0" stroke-width="3" stroke-linecap="round" stroke-linejoin="round"/>
<path d="M947.88 269.73H918.11C915.23 269.73 912.9 267.4 912.9 264.52C912.9 261.64 915.23 259.31 918.11 259.31H953.67" stroke="#6A2EA0" stroke-width="3" stroke-linecap="round" stroke-linejoin="round"/>
<path d="M918.11 269.73L930.97 299.85L956.45 256.31C956.45 256.31 1038.74 282.21 1039.07 402.51C1039.07 440.74 1008.08 471.72 969.86 471.72H945.48" stroke="#6A2EA0" stroke-width="3" stroke-linecap="round" stroke-linejoin="round"/>
<path d="M891.62 184.54L889.44 190.59C888.2 194.04 889.89 197.85 893.27 199.24L961.5 227.38C965.11 228.87 969.24 227.04 970.56 223.37L972.74 217.32C973.98 213.87 972.29 210.06 968.91 208.67L900.68 180.53C897.07 179.04 892.94 180.87 891.62 184.54V184.54Z" stroke="#6A2EA0" stroke-width="3" stroke-linecap="round" stroke-linejoin="round"/>
<path d="M930.95 355.45V299.17" stroke="#6A2EA0" stroke-width="3" stroke-linecap="round" stroke-linejoin="round"/>
<path d="M974.14 302.47C974.14 302.47 969.86 376.96 900.32 376.96L909.78 412.36" stroke="#6A2EA0" stroke-width="3" stroke-linecap="round" stroke-linejoin="round"/>
<path d="M866.71 499.07L892.62 432.52C898.66 417.01 913.59 406.8 930.24 406.8H978.59" stroke="#6A2EA0" stroke-width="3" stroke-linecap="round" stroke-linejoin="round"/>
<path d="M1007.1 348.46C1007.1 348.46 1003.97 376.67 972.75 391.73" stroke="#6A2EA0" stroke-width="3" stroke-linecap="round" stroke-linejoin="round"/>
<path d="M901.81 385.7C901.81 385.7 883.18 390.31 872.64 406.79" stroke="#6A2EA0" stroke-width="3" stroke-linecap="round" stroke-linejoin="round"/>
<path d="M895.55 397.57C895.55 397.57 886.81 400.21 882.2 406.8" stroke="#6A2EA0" stroke-width="3" stroke-linecap="round" stroke-linejoin="round"/>
<path d="M815.84 487.73L850.77 424.82C856.95 413.69 868.67 406.79 881.4 406.79H908.09" stroke="#6A2EA0" stroke-width="3" stroke-linecap="round" stroke-linejoin="round"/>
<path d="M895.55 387.95V339.74C895.55 315.19 903.57 291.31 918.39 271.73" stroke="#6A2EA0" stroke-width="3" stroke-linecap="round" stroke-linejoin="round"/>
<path d="M1049.81 321.73C1055.74 321.73 1060.55 326.54 1060.55 332.47V479.18H1039.07V332.47C1039.07 326.54 1043.88 321.73 1049.81 321.73Z" stroke="#6A2EA0" stroke-width="3" stroke-linecap="round" stroke-linejoin="round"/>
<path d="M987.16 18.6101L998.59 35.5201" stroke="#6A2EA0" stroke-width="3" stroke-linecap="round" stroke-linejoin="round"/>
<path d="M984.29 25.6101L995.73 42.5301" stroke="#6A2EA0" stroke-width="3" stroke-linecap="round" stroke-linejoin="round"/>
<path d="M985.03 65.6901C985.03 65.6901 1016.47 68.5301 1033.01 52.0701" stroke="#6A2EA0" stroke-width="3" stroke-linecap="round" stroke-linejoin="round"/>
<path d="M842.53 116.33C842.53 116.33 864.47 118.31 876.01 106.83" stroke="#6A2EA0" stroke-width="3" stroke-linecap="round" stroke-linejoin="round"/>
<path d="M1003 127.2C1003 127.2 1019.78 113.06 1045.42 115.11" stroke="#6A2EA0" stroke-width="3" stroke-linecap="round" stroke-linejoin="round"/>
<path d="M1021.6 118.2C1021.6 118.2 1030.5 128.14 1022.34 146" stroke="#6A2EA0" stroke-width="3" stroke-linecap="round" stroke-linejoin="round"/>
<path d="M1019.55 128.58C1019.55 128.58 1020.07 135.02 1016.71 142.4" stroke="#6A2EA0" stroke-width="3" stroke-linecap="round" stroke-linejoin="round"/>
<path d="M900.44 77.6599C905.73 78.2399 911.07 77.6099 916.1 75.8899C923.37 73.3999 936.08 70.3999 951.86 72.2299" stroke="#6A2EA0" stroke-width="3" stroke-linecap="round" stroke-linejoin="round"/>
<path d="M784.08 149.46C787.75 149.46 791.36 148.63 794.68 147.07C799.47 144.82 807.96 141.81 818.91 141.89" stroke="#6A2EA0" stroke-width="3" stroke-linecap="round" stroke-linejoin="round"/>
<path d="M936.17 85.25C936.17 85.25 940.61 94.89 940.23 104.43" stroke="#6A2EA0" stroke-width="3" stroke-linecap="round" stroke-linejoin="round"/>
<path d="M927.74 83.0601C927.74 83.0601 928.86 85.2201 929.36 88.8501" stroke="#6A2EA0" stroke-width="3" stroke-linecap="round" stroke-linejoin="round"/>
<path d="M843.66 84.2C843.66 84.2 845.95 93.59 851.39 101.03" stroke="#6A2EA0" stroke-width="3" stroke-linecap="round" stroke-linejoin="round"/>
<path d="M212.09 487.73H66.2502C53.1002 487.73 42.4502 477.07 42.4502 463.93C42.4502 450.78 53.1102 440.13 66.2502 440.13H160.61" stroke="#6A2EA0" stroke-width="3" stroke-linecap="round" stroke-linejoin="round" stroke-dasharray="0.2 7 0.2 7"/>
<path d="M175.4 334.73L166.05 344.41C163.66 346.88 159.47 345.19 159.47 341.75V339.89" stroke="#6A2EA0" stroke-width="3" stroke-linecap="round" stroke-linejoin="round"/>
<path d="M77.79 348.97H140.11" stroke="#6A2EA0" stroke-width="3" stroke-linecap="round" stroke-linejoin="round"/>
<path d="M947.38 221.69C947.38 224.97 944.72 227.64 941.43 227.64" stroke="#6A2EA0" stroke-width="3" stroke-linecap="round" stroke-linejoin="round"/>
<path d="M954.13 224.67V257.5" stroke="#6A2EA0" stroke-width="3" stroke-linecap="round" stroke-linejoin="round"/>
<path d="M964.7 206.16L965.01 175.8C965.09 167.85 959.81 160.83 951.8 158.26C944.68 155.97 936.67 157.62 931.08 162.54L911.39 179.85" stroke="#6A2EA0" stroke-width="3" stroke-linecap="round" stroke-linejoin="round"/>
<path d="M958.58 159.5C964.617 159.5 969.51 154.606 969.51 148.57C969.51 142.533 964.617 137.64 958.58 137.64C952.544 137.64 947.65 142.533 947.65 148.57C947.65 154.606 952.544 159.5 958.58 159.5Z" stroke="#6A2EA0" stroke-width="3" stroke-linecap="round" stroke-linejoin="round"/>
<path d="M843.66 188.6C843.66 188.6 834.71 319.73 673.9 319.73" stroke="#6A2EA0" stroke-width="3" stroke-linecap="round" stroke-linejoin="round" stroke-dasharray="0.2 7 0.2 7"/>
<path d="M535.57 73.8701L552.76 56.5701" stroke="#6A2EA0" stroke-width="3" stroke-linecap="round" stroke-linejoin="round"/>
<path d="M463.24 54.9099L477.48 60.6899" stroke="#6A2EA0" stroke-width="3" stroke-linecap="round" stroke-linejoin="round"/>
<defs>
<linearGradient id="paint0_linear_813_14434" x1="38" y1="262.37" x2="1060.55" y2="262.37" gradientUnits="userSpaceOnUse">
<stop stop-color="#4C90FF"/>
<stop offset="0.38" stop-color="#9075CF"/>
<stop offset="1" stop-color="#FF4C84"/>
</linearGradient>
</defs>
</svg>
