<?xml version="1.0" encoding="UTF-8"?>
<svg id="Layer_1" data-name="Layer 1" xmlns="http://www.w3.org/2000/svg" xmlns:xlink="http://www.w3.org/1999/xlink" viewBox="0 0 300 316.97">
  <defs>
    <style>
      .cls-1 {
        fill: url(#linear-gradient);
      }

      .cls-2 {
        stroke-dasharray: 0 0 0 0 .2 7 .2 7;
      }

      .cls-2, .cls-3 {
        fill: none;
        stroke: #6a2ea0;
        stroke-linecap: round;
        stroke-linejoin: round;
        stroke-width: 2px;
      }

      .cls-4 {
        fill: #0261ff;
      }
    </style>
    <linearGradient id="linear-gradient" x1="47.44" y1="136.84" x2="263.23" y2="136.84" gradientUnits="userSpaceOnUse">
      <stop offset="0" stop-color="#4c90ff"/>
      <stop offset=".13" stop-color="#5a8af4"/>
      <stop offset=".37" stop-color="#817bda"/>
      <stop offset=".7" stop-color="#bf63af"/>
      <stop offset="1" stop-color="#ff4c84"/>
    </linearGradient>
  </defs>
  <circle class="cls-4" cx="216.45" cy="296.49" r="5"/>
  <g>
    <path class="cls-1" d="m86.52,33.12c2.83,0,5.12-2.29,5.12-5.12s-2.29-5.12-5.12-5.12-5.12,2.29-5.12,5.12,2.29,5.12,5.12,5.12Zm40.54,78.97c-5.03,0-9.37,2.91-11.46,7.12-2.09-4.22-6.43-7.12-11.46-7.12-7.07,0-12.81,5.73-12.81,12.8,0,3.96,1.8,7.49,4.62,9.84h0s.03.03.03.03c0,0,.01.01.02.02l19.6,16.69h0s0,0,0,0l19.6-16.69s0,0,0,0l.04-.03h0c2.82-2.35,4.62-5.89,4.62-9.84,0-7.07-5.73-12.8-12.81-12.8Zm54.03-11.52c0-1.04-.84-1.88-1.88-1.88H49.32c-1.04,0-1.88.84-1.88,1.88s.84,1.88,1.88,1.88h129.9c1.04,0,1.88-.84,1.88-1.88Zm-.34,61.49c0-4.38-3.55-7.92-7.92-7.92h-11.59c-4.38,0-7.92,3.55-7.92,7.92s3.55,7.92,7.92,7.92h11.59c4.38,0,7.92-3.55,7.92-7.92Zm2.47,30.2c-.93,14.02.95,42.22.95,42.22l-16,6.88v9.43h48.27v-83.5s0-25.24,18.67-36.91c0,0-50.46,9.33-51.89,61.88Zm67.03-127.96h-43.38s7.57,15.21,23.76,16.9c16.18,1.69,13.84,10.7,13.84,10.7,0,0-.88,5.28-4.5,6v17.26h8.69c8.05,0,14.57-6.52,14.57-14.57v-23.31c0-7.17-5.81-12.98-12.98-12.98Z"/>
    <path class="cls-3" d="m35.17,35.41h45.67v18.1c0,4.4-3.57,7.97-7.97,7.97h-29.73c-4.4,0-7.97-3.57-7.97-7.97v-18.1h0Z"/>
    <polyline class="cls-3" points="35.17 35.41 58.01 51.92 80.84 35.41"/>
    <path class="cls-3" d="m230.63,131.78v-18.94c-8.85,5.04-14.18.35-14.18-6.03v-32.65"/>
    <path class="cls-3" d="m184.18,234.48s-11.7-67.34,23.41-91.67c8.87-6.15,18.3-10.3,27.53-12.43"/>
    <path class="cls-3" d="m288.5,122.34c-6.18-2.59-12.97-4.03-20.1-4.03h0c-28.7,0-51.96,23.26-51.96,51.96v80.52"/>
    <path class="cls-3" d="m128.6,250.79s11.13-12.58,29.02-6.29l32.89-12.58"/>
    <polyline class="cls-3" points="173.26 179.16 35.17 179.16 35.17 83.84 192.43 83.84 192.43 143.88"/>
    <line class="cls-3" x1="105.18" y1="179.16" x2="105.18" y2="213.74"/>
    <line class="cls-3" x1="126.9" y1="179.16" x2="126.9" y2="213.74"/>
    <rect class="cls-3" x="82.49" y="213.78" width="66.22" height="7.39" rx="3.7" ry="3.7"/>
    <polyline class="cls-3" points="81.65 128.63 101.01 128.63 104.65 135.63 108.57 122.34 111.43 128.63 117.76 128.63 120.67 133.57 123.93 123.26 126.25 128.63 148.55 128.63"/>
    <g>
      <line class="cls-3" x1="48.38" y1="157.07" x2="70.5" y2="157.07"/>
      <line class="cls-3" x1="48.38" y1="162.06" x2="70.5" y2="162.06"/>
      <line class="cls-3" x1="48.38" y1="167.05" x2="70.5" y2="167.05"/>
      <line class="cls-3" x1="78.33" y1="157.07" x2="100.45" y2="157.07"/>
      <line class="cls-3" x1="78.33" y1="162.06" x2="100.45" y2="162.06"/>
      <line class="cls-3" x1="78.33" y1="167.05" x2="100.45" y2="167.05"/>
    </g>
    <path class="cls-3" d="m223.54,250.79h-94.95c-10.52,0-20.53,4.54-27.46,12.46l-.68.78"/>
  </g>
  <line class="cls-2" x1="35.78" y1="221.17" x2="173.62" y2="221.17"/>
</svg>