<?xml version="1.0" encoding="UTF-8"?>
<svg id="Layer_3" data-name="Layer 3" xmlns="http://www.w3.org/2000/svg" xmlns:xlink="http://www.w3.org/1999/xlink" viewBox="0 0 888 330">
  <defs>
    <style>
      .cls-1 {
        fill: url(#linear-gradient);
      }

      .cls-2 {
        stroke: #692f9d;
        stroke-dasharray: 0 0 0 0 .2 7 .2 7;
      }

      .cls-2, .cls-3 {
        fill: none;
        stroke-linecap: round;
        stroke-linejoin: round;
        stroke-width: 2px;
      }

      .cls-4 {
        fill: #0061fa;
      }

      .cls-3 {
        stroke: #6a2ea0;
      }
    </style>
    <linearGradient id="linear-gradient" x1="253.34" y1="-49.23" x2="689.76" y2="387.19" gradientUnits="userSpaceOnUse">
      <stop offset="0" stop-color="#fe5285"/>
      <stop offset=".21" stop-color="#dd5d9a"/>
      <stop offset=".67" stop-color="#8a7ad2"/>
      <stop offset="1" stop-color="#4c91fc"/>
    </linearGradient>
  </defs>
  <path class="cls-1" d="m44.92,193.44s-14.61,14.84,0,33.54c14.33-19.34,0-33.54,0-33.54Zm86.51,83.43s42.86-25.66,62.38-78.5c0,0,11.77,21.7,19.07,88.88h12.32s11.26-51.5,7.16-81.08c-4.11-29.58-16.56-58.64-16.56-58.64h-62.71s.04,48.23-30.99,120.13l9.33,9.2Zm590.54,11.91l-.23-139.03c-20.03.29-17.56,21.84-16.41,25.46,2.51,7.94,2.59,10.78-4.95,16.96-7.67,6.29-7.48,13.89-4.05,20.72,2.83,5.63,1.1,12.91-6.92,18.22-13,8.61-14.19,22.7-6.43,37.25,9.97,18.7,38.92,20.42,38.99,20.41Zm-77.34-9.55l-.32-196.58c-28.32.41-24.82,30.89-23.21,36,3.54,11.23,3.67,15.24-7,23.98-10.85,8.89-10.58,19.64-5.72,29.3,4,7.96,1.56,18.25-9.79,25.76-18.39,12.17-20.06,32.1-9.09,52.67,14.1,26.44,55.03,28.88,55.13,28.86Zm128.58-138.02c3.13,9.91,3.24,13.45-6.18,21.17-9.58,7.85-9.34,17.34-5.05,25.87,3.53,7.02,1.38,16.11-8.64,22.74-16.23,10.74-17.71,28.34-8.02,46.5,12.45,23.34,48.57,25.49,48.67,25.48l-.29-173.53c-25,.36-21.91,27.26-20.49,31.78Zm-232.05-43.23l10.55-10.9-3.8-4.87c-2.86-3.66-3.93-8.4-2.93-12.94h0s1.23.54,1.23.54c-2.53-3.68-3.53-8.21-2.75-12.63l.08-.47,18.25,22.94,1.64-.53c3.76-1.23,7.9-.02,10.41,3.03l2.7,3.29-35.39,12.53Zm262.63-50.88h24.33c-.67-13.7-16.04-20.04-26.12-12.21-2.69-4.24-7.42-7.06-12.82-7.06-6.46,0-11.97,4.04-14.16,9.73-1.47-.83-3.17-1.31-4.98-1.31-5.63,0-10.2,4.57-10.2,10.2,0,.22.02.43.03.65h43.92Zm-300.12,230.08s-14.61,14.84,0,33.54c14.33-19.34,0-33.54,0-33.54ZM236.33,13.99l-46.85,10.39s-.53-11.23,4.31-13.77c4.84-2.54,23.84-3.58,31.49-2.36,7.65,1.22,10.66,3.43,11.05,5.74Zm-38.4,48.5l-2.66,4.51s1.46,1.9,7.73,1.51c6.7-.41,9.76-5.87,9.76-5.87l-4.37-3.69c-2.63,5.37-10.46,3.53-10.46,3.53Zm-14.62,63.32l-4.34,6.94,5.14,3.24,4.34-6.94-5.13-3.25Zm-11.75,18.66l-2.57,4.06,5.13,3.25,2.68-4.24-5.25-3.06Zm95.09-9.4l-3.13,12.09,5.88,1.52,2.2-8.47s-4.53-3.21-4.94-5.14Zm134.16-.67s.04-3.97-1.31-16.36c-1.43-14.03-11.45-23.98-16.9-28.41.08,5.75-3.51,6.11-3.51,6.11-6.27,1.04-10.52-4.25-10.52-4.25v-7.61s-17.01-.66-25.32,3.97c-17.94,9.72-30.64,33.44-30.64,33.44,3.59,12.87,8.01,24.5,12.34,31.61l2.88-2.7,9.61-12.9.5-1.62c2.76,1.1,4.95,1.54,6.46.22,1.51-1.32,9.48-3.15,9.48-3.15l.93-1.85,5.67,1.85-1.13,4.57h4.31l-5.07,8.98-1.34.42-3.11,12.09-5.9-.53,2.49-11.01s-10.98-1.53-16.46-3.78c-1.28,1.93-.49,16.33-.81,18.98.04.05.98,6.9.98,6.9,12.65,2.16,26.06-3.8,32.16-5.01s17.87.77,17.87.77c2.24-8.8-2.5-16.97-2.5-16.97l3.4-13.77,6.04,13.13s30.78,11.92,35.37,11.81v-24.94h-25.97Zm-64.34-7.55l-6.68-3.52,8.14-4.78-1.47,8.31Zm64.34,7.55s.04-3.97-1.31-16.36c-1.43-14.03-11.45-23.98-16.9-28.41.08,5.75-3.51,6.11-3.51,6.11-6.27,1.04-10.52-4.25-10.52-4.25v-7.61s-17.01-.66-25.32,3.97c-17.94,9.72-30.64,33.44-30.64,33.44,3.59,12.87,8.01,24.5,12.34,31.61l2.88-2.7,9.61-12.9.5-1.62c2.76,1.1,4.95,1.54,6.46.22,1.51-1.32,9.48-3.15,9.48-3.15l.93-1.85,5.67,1.85-1.13,4.57h4.31l-5.07,8.98-1.34.42-3.11,12.09-5.9-.53,2.49-11.01s-10.98-1.53-16.46-3.78c-1.28,1.93-.49,16.33-.81,18.98.04.05.98,6.9.98,6.9,12.65,2.16,26.06-3.8,32.16-5.01s17.87.77,17.87.77c2.24-8.8-2.5-16.97-2.5-16.97l3.4-13.77,6.04,13.13s30.78,11.92,35.37,11.81v-24.94h-25.97Zm-64.34-7.55l-6.68-3.52,8.14-4.78-1.47,8.31Zm-7.71,159.98s7.28-4.28,3.69-9.08c-2.14-2.87-8.47-1.44-10.66,1.19l-4.41-3.78-15.15,18.16,16.79,17.6,16.64-.05s-1.95-9.91-11.65-9.24l-4.19-5.31,8.93-9.48Zm64.33-3.27s-.79-8.76-5.26-8.22c-6.24.77-4.39,10.51-4.39,10.51l-4.34,1.4,5.74,24.18,30.75-6.04s1.12-7.31-5.36-7.91c-4.97-.46-13,3.71-13,3.71l-4.14-17.62Z"/>
  <circle class="cls-4" cx="71.84" cy="96.02" r="5"/>
  <circle class="cls-4" cx="532.08" cy="212.37" r="5"/>
  <polyline class="cls-3" points="442.98 146.73 442.98 154.9 436.91 154.9 436.91 129.49 442.98 129.49 442.98 137.2"/>
  <line class="cls-3" x1="439.94" y1="310.87" x2="439.94" y2="155"/>
  <path class="cls-3" d="m448.8,135.76s-4.72-.13-7.07,3.25c-2.34,3.36-2.34,7.72-2.34,7.72h6.15c1.79,0,3.25-1.45,3.25-3.25v-7.72Z"/>
  <path class="cls-3" d="m436.26,133.24s-4.29.96-4.59,4.73h-4.81"/>
  <line class="cls-3" x1="426.86" y1="146.73" x2="436.26" y2="146.73"/>
  <line class="cls-3" x1="99.95" y1="311.28" x2="261.79" y2="311.28"/>
  <line class="cls-3" x1="191.57" y1="47.72" x2="196.02" y2="41.49"/>
  <path class="cls-3" d="m183.06,51.87l-18.8,2.35c-9.4,8.41-28.28,38.54-33.58,51.71,7.05,9.91,27.89,29.99,27.89,29.99l6.49-6.45"/>
  <path class="cls-3" d="m230.23,41.47c1.08-5.39,1.07-10.1.65-14.01-.37-3.46-1.07-6.3-1.62-8.45"/>
  <path class="cls-3" d="m225.87,117.69s.7-23.5-1.01-44.25c0,0-11.99-11.17-16.79-14.47l3.9-7.09"/>
  <path class="cls-3" d="m171.56,84.13s-7.31,14.08-17.55,21.8"/>
  <path class="cls-3" d="m170.16,128.6s-7.35-15.6-13.09-25.35"/>
  <path class="cls-3" d="m213.78,98.21s2.01,26.93,2.01,49.34h-25.86"/>
  <polyline class="cls-3" points="216.66 130.45 250.38 138.38 252.4 130.91"/>
  <line class="cls-3" x1="254.3" y1="125.88" x2="226.57" y2="114.27"/>
  <path class="cls-3" d="m236.95,301.11l-11.75-7.8v-6.38c5.16-26.82,19.26-80.42-9.4-139.38"/>
  <path class="cls-3" d="m201.02,169.73s-5.71,34.25-23.17,60.11c-17.46,25.86-46.42,47.03-46.42,47.03l-4.95,5.19-8.39-6.72,3.36-6.01s35.63-88.52,31.56-121.4"/>
  <path class="cls-3" d="m176.51,70.7s2.52-15-12.26-16.48"/>
  <path class="cls-3" d="m190.02,45.77s3.27,5.43,11,10.81l-4.73,9.07s-8.55-4.78-13.24-13.77l3.64-3.28"/>
  <path class="cls-3" d="m236.33,13.99c-.54-8.81-35.64-6.59-40.99-4.26-1.86.81-3.38,2.26-4.21,4.12-1.05,2.32-2.06,5.88-1.46,10.38"/>
  <path class="cls-3" d="m189.66,24.23c0,6.08,2.63,13.25,6.36,17.26,0,0,9.7,1.99,14.4-1.7,0,0-2.15-8.84,2.45-9.12s2.92,6.77,1.58,9.46c-1.34,2.69-4.16,10.07-1.58,14.44,2.58,4.37,10.64,6.72,15.34,6.38l2.01-19.48s-5.37-1.68-11.08,3.02c0,0-.67-11.75,1.68-21.83,4.12.67,9.26,1.09,8.43-3.65,2.35.47,7.06-1.13,7.06-5.01"/>
  <path class="cls-3" d="m364.65,58.93s-2.11,15.44,7.96,21.82c9.29,4.81,18.8-11.63,18.8-11.63,0,0,5.8-3.94,5.21-8.45-.41-3.14-4.85-1.74-4.85-1.74"/>
  <path class="cls-3" d="m374.62,59.26s-2.01,4.81-1.57,6.72,2.24,2.09,3.47,1.55"/>
  <path class="cls-3" d="m375.24,73.59s3.45,1.12,5.67-1.46"/>
  <path class="cls-3" d="m368.58,77.38v12.55c0,4.47,6.49,6.94,10.52,5.82"/>
  <path class="cls-3" d="m382.67,89.54c20.19,13.78,18.14,44.88,18.14,44.88h25.97v24.94c-15.41-3.31-35.37-11.81-35.37-11.81l-6.04-13.13"/>
  <path class="cls-3" d="m341.71,130.45l-16.46,22.94c-6.49-10.3-12.64-32.08-12.64-32.08,0,0,20.82-43.91,55.96-37.42"/>
  <line class="cls-3" x1="327.16" y1="121.31" x2="341.71" y2="130.45"/>
  <path class="cls-3" d="m349.37,109.14s-11.91,10.65-18.62,13.74"/>
  <path class="cls-3" d="m380.91,130.45s4.68.35,9.83-3.85l-2.02-16.74"/>
  <line class="cls-3" x1="385.82" y1="129.49" x2="381.97" y2="148.19"/>
  <path class="cls-3" d="m333.75,155.12c-.11,9.4.69,14.28.69,14.28,0,0,8.17,2.54,22.39-2.65,14.21-5.19,27.65-1.6,27.65-1.6,0,0,2.05-8.6-3.56-19.13-.53-1-1.13-2.01-1.81-3.04"/>
  <path class="cls-3" d="m338.41,118.05c-.76,3-1.4,5.94-1.94,8.81"/>
  <path class="cls-3" d="m393.09,283.57l1.5,7.39,2.64,10.24,9.26-3.19c9.69-2.99,9.1,7.39,9.1,7.39l-30.84,5.66-5.65-23.79"/>
  <path class="cls-3" d="m317.38,275.16l-15.15,18.16,16.79,17.6h16.64s-.61-9.51-11.65-9.29l-4.19-5.31,8.93-9.48"/>
  <polyline class="cls-3" points="357.12 146.73 354.15 159.02 348.24 157.65 350.73 147.31"/>
  <polyline class="cls-3" points="352.9 138.29 354.68 130.93 360.59 132.3 359.37 137.36"/>
  <line class="cls-3" x1="319.03" y1="310.92" x2="351.1" y2="158.31"/>
  <polyline class="cls-3" points="271.6 140.23 269.4 148.7 263.52 147.18 269.5 124.11 275.38 125.64"/>
  <line class="cls-3" x1="228.26" y1="295.34" x2="266.46" y2="147.94"/>
  <polyline class="cls-3" points="177.08 147.13 174.13 151.79 169 148.55 171.73 144.22"/>
  <polyline class="cls-3" points="178.97 132.77 183.31 125.82 188.45 129.07 184.11 136"/>
  <line class="cls-3" x1="69.93" y1="310.95" x2="171.56" y2="150.17"/>
  <path class="cls-3" d="m118.08,275.35l-13.43,8.86,20.15,26.66h14.75s0-13.58-13.23-12.89"/>
  <line class="cls-3" x1="126.48" y1="282.07" x2="129.82" y2="298.16"/>
  <path class="cls-3" d="m230.86,41.47s3.82.36,4.71-2.4c.62-1.95-4.42-8.32-4.42-8.32"/>
  <path class="cls-3" d="m223.77,47.03s1.42,1.01,5.5.76"/>
  <line class="cls-3" x1="185.23" y1="25.32" x2="240.31" y2="13.11"/>
  <path class="cls-3" d="m197.93,62.5s5.91,2.55,10.14-3.53"/>
  <path class="cls-3" d="m203,67.93s5.39.28,9.76-5.27"/>
  <path class="cls-3" d="m159.7,135.4l14.1,10.34c3.44,2.5,9.25,2.2,11.83-2.47l2.59-3.83-10.3-6.67"/>
  <path class="cls-3" d="m181.72,128.41s-8.69-1.58-13.27.89"/>
  <polyline class="cls-3" points="163.61 147.94 150.49 147.94 150.49 127.91"/>
  <line class="cls-3" x1="212.88" y1="293.22" x2="225.2" y2="293.22"/>
  <line class="cls-3" x1="212.88" y1="287.34" x2="224.6" y2="287.34"/>
  <line class="cls-3" x1="125.26" y1="272.22" x2="131.43" y2="276.87"/>
  <path class="cls-3" d="m231.91,302.36l5.05-1.25c12.6-2.04,13.66,9.84,13.66,9.84h-37.73v-23.69s-5.94-57.47-19.07-90.49"/>
  <path class="cls-3" d="m264.84,142.09s-11.66-3.03-14.46-3.71"/>
  <path class="cls-3" d="m254.3,125.88s12.61-8.85,22.85-6.42c0,0,.79,3.9-3.42,5.74"/>
  <path class="cls-3" d="m272.5,140.52l2.17.53,4.09-14.58-9.26-2.36-2.05,7.93c-.97,3.74,1.31,7.55,5.06,8.48Z"/>
  <path class="cls-3" d="m268.54,127.81s-2.21,1.49-5.9,1.32"/>
  <line class="cls-3" x1="382.68" y1="79.38" x2="382.68" y2="89.54"/>
  <path class="cls-3" d="m332.7,143s.54.58,5.64,2.33c6.21,2.12,12.88,2.52,19.32,1.26h0c1.36-.21,2.51-1.11,3.05-2.37l2.94-6.83s-7.74-.59-12.46,1.51"/>
  <path class="cls-3" d="m353.88,132.78s-6.3,1.02-11.09,4.54l-4.85-1.62"/>
  <path class="cls-3" d="m442.98,136.61c3.26-1.02,4.23-5.54,4.23-5.54h-4.23"/>
  <path class="cls-3" d="m387.83,275.35c-4.56.94-5.57,4.88-3.97,11.93"/>
  <path class="cls-3" d="m321.03,280.28s5.48-7.49,11.42-2.52"/>
  <line class="cls-3" x1="79.8" y1="311.44" x2="54.62" y2="311.44"/>
  <path class="cls-3" d="m275.38,311.28h256.7"/>
  <line class="cls-3" x1="606.78" y1="311.28" x2="865.52" y2="311.28"/>
  <line class="cls-3" x1="96.2" y1="227.05" x2="20.55" y2="227.05"/>
  <path class="cls-3" d="m71.94,172.68s-23.65,24.02,0,54.3c23.2-31.31,0-54.3,0-54.3Z"/>
  <path class="cls-2" d="m23.26,51.53C54.54,15.81,92.62-5.35,166.97,44.11"/>
  <path class="cls-3" d="m334.44,169.4c.82,16.83,17.56,35.9,26.16,51.03,9.93,17.48,18.5,66.83,18.5,66.83"/>
  <path class="cls-3" d="m370.52,178.03s20.44,79.7,22.57,105.53"/>
  <path class="cls-3" d="m366.73,235.29c-8.37,15.44-20.49,32.83-37.97,51.54"/>
  <path class="cls-3" d="m384.47,165.15s3.19,16.77-6.23,44.2"/>
  <path class="cls-3" d="m317.38,275.16s29.88-33.57,32.7-70.87"/>
  <path class="cls-3" d="m389.41,72.13h12.78v-15.44c0-12.65-10.02-23.22-22.67-23.44-12.92-.22-23.45,10.19-23.45,23.06v15.82h9.64"/>
  <line class="cls-3" x1="376.52" y1="33.41" x2="376.52" y2="47.72"/>
  <path class="cls-3" d="m364.93,52.7s2.75-4.98,11.6-4.98,12.46,5.79,12.46,5.79"/>
  <path class="cls-3" d="m721.91,288.78c.08.01,29.02-1.72,38.99-20.41,7.76-14.55,6.58-28.65-6.43-37.25-8.03-5.31-9.75-12.59-6.92-18.22,3.43-6.83,3.63-14.44-4.05-20.72-7.55-6.18-7.46-9.01-4.95-16.96,1.14-3.62,3.61-25.17-16.41-25.46"/>
  <line class="cls-3" x1="721.86" y1="140.04" x2="721.86" y2="311.05"/>
  <line class="cls-3" x1="711.75" y1="174.3" x2="721.86" y2="183.9"/>
  <line class="cls-3" x1="741.15" y1="250.59" x2="721.86" y2="268.91"/>
  <path class="cls-3" d="m644.55,279.23c.11.02,41.03-2.43,55.13-28.86,10.97-20.57,9.3-40.51-9.09-52.67-11.35-7.51-13.79-17.81-9.79-25.76,4.85-9.66,5.13-20.41-5.72-29.3-10.67-8.74-10.54-12.75-7-23.98,1.62-5.12,5.11-35.59-23.21-36"/>
  <line class="cls-3" x1="644.48" y1="69.26" x2="644.48" y2="311.05"/>
  <line class="cls-3" x1="630.18" y1="117.36" x2="644.48" y2="130.94"/>
  <line class="cls-3" x1="671.76" y1="225.23" x2="644.48" y2="251.13"/>
  <line class="cls-3" x1="595.52" y1="143.74" x2="644.48" y2="190.23"/>
  <path class="cls-3" d="m793.91,282.96c.1.01,36.22-2.14,48.67-25.48,9.69-18.16,8.21-35.76-8.02-46.5-10.02-6.63-12.17-15.72-8.64-22.74,4.28-8.53,4.53-18.02-5.05-25.87s-9.31-11.25-6.18-21.17c1.43-4.52,4.51-31.42-20.49-31.78"/>
  <line class="cls-3" x1="793.85" y1="97.61" x2="793.85" y2="311.05"/>
  <line class="cls-3" x1="781.23" y1="140.07" x2="793.85" y2="152.06"/>
  <line class="cls-3" x1="817.93" y1="235.29" x2="793.85" y2="258.15"/>
  <line class="cls-3" x1="750.64" y1="163.36" x2="793.85" y2="204.4"/>
  <path class="cls-3" d="m541.57,54.29l18.4,22.73c1.93,2.38,1.36,5.92-1.23,7.57h0"/>
  <line class="cls-3" x1="542.48" y1="65.94" x2="552.47" y2="79.31"/>
  <line class="cls-3" x1="542.16" y1="74.91" x2="547.5" y2="81.47"/>
  <path class="cls-2" d="m236.95,81.83l4.11,2.73c16.11,10.69,35,16.39,54.33,16.39h19.31"/>
  <path class="cls-2" d="m399.89,100.94h38.45c24.28,0,47.88,8,67.15,22.76l56.51,43.28"/>
  <path class="cls-3" d="m475.87,256.42s-23.65,24.02,0,54.3c23.2-31.31,0-54.3,0-54.3Z"/>
  <g>
    <g>
      <path class="cls-3" d="m594.43,307.32c1.96,0,3.55,1.59,3.55,3.55s-1.59,3.55-3.55,3.55"/>
      <path class="cls-3" d="m582.05,314.42c-1.96,0-3.55-1.59-3.55-3.55s1.59-3.55,3.55-3.55"/>
      <path class="cls-3" d="m594.4,314.48c.97,1.7.38,3.87-1.32,4.84-1.7.97-3.87.38-4.84-1.32"/>
      <path class="cls-3" d="m582.08,307.26c-.97-1.7-.38-3.87,1.32-4.84,1.7-.97,3.87-.38,4.84,1.32"/>
      <path class="cls-3" d="m588.14,318.01c-1,1.69-3.18,2.24-4.86,1.24s-2.24-3.18-1.24-4.86"/>
      <path class="cls-3" d="m588.34,303.73c1-1.69,3.18-2.24,4.86-1.24s2.24,3.18,1.24,4.86"/>
    </g>
    <circle class="cls-3" cx="588.24" cy="310.87" r="3.57"/>
  </g>
  <g>
    <g>
      <path class="cls-3" d="m561.48,307.32c1.96,0,3.55,1.59,3.55,3.55s-1.59,3.55-3.55,3.55"/>
      <path class="cls-3" d="m549.09,314.42c-1.96,0-3.55-1.59-3.55-3.55s1.59-3.55,3.55-3.55"/>
      <path class="cls-3" d="m561.45,314.48c.97,1.7.38,3.87-1.32,4.84-1.7.97-3.87.38-4.84-1.32"/>
      <path class="cls-3" d="m549.13,307.26c-.97-1.7-.38-3.87,1.32-4.84,1.7-.97,3.87-.38,4.84,1.32"/>
      <path class="cls-3" d="m555.18,318.01c-1,1.69-3.18,2.24-4.86,1.24s-2.24-3.18-1.24-4.86"/>
      <path class="cls-3" d="m555.39,303.73c1-1.69,3.18-2.24,4.86-1.24s2.24,3.18,1.24,4.86"/>
    </g>
    <circle class="cls-3" cx="555.29" cy="310.87" r="3.57"/>
  </g>
  <circle class="cls-3" cx="721.86" cy="47.1" r="12.18"/>
</svg>